<?xml version="1.0" encoding="utf-8"?>
<!-- Generator: Adobe Illustrator 17.0.0, SVG Export Plug-In . SVG Version: 6.00 Build 0)  -->
<!DOCTYPE svg PUBLIC "-//W3C//DTD SVG 1.1//EN" "http://www.w3.org/Graphics/SVG/1.1/DTD/svg11.dtd">
<svg version="1.1" id="图层_1" xmlns="http://www.w3.org/2000/svg" xmlns:xlink="http://www.w3.org/1999/xlink" x="0px" y="0px"
	 width="95px" height="33px" viewBox="0 0 95 33" enable-background="new 0 0 95 33" xml:space="preserve">
<g>
	<path d="M5.162,19.042h5.567v-1.958c-1.276-0.132-2.53,0.22-3.851,0.132l-0.242-0.902c1.386,0.044,2.685,0.066,4.049-0.088v-1.914
		H9.211l-0.33-0.353c-0.044,0.374-0.066,0.66-0.088,1.013c-0.154,0.11-0.352,0.264-0.638,0.528
		c-0.088-0.309-0.176-0.507-0.198-0.704L7.759,9.074L6.725,8.568c0.77-0.594,0.99-0.594,1.826,0.044l4.533-0.132
		c0.308-0.264,0.572-0.528,0.902-0.792l1.1,0.792c0.308,0.242,0.353,0.506,0.132,0.836l-0.33,0.528
		c0.066,0.594,0.11,1.057,0.132,1.519c0.022,0.594-0.044,1.188,0.022,1.76c0.11,0.836-0.308,1.408-0.858,1.914
		c-0.198,0.221-0.484,0.242-0.792-0.044l-0.066-0.924l-1.519,0.132l0.11,1.98c0.748,0.132,1.342-0.021,1.804-0.66l0.946,0.594
		l0.088,0.749h-3.257c0.572,0.22,0.352,0.615,0.396,0.924c0.044,0.308,0.044,0.616,0.066,0.902c0.418,0.506,0.946,0.176,1.364,0.352
		c0.44-0.352,0.858-0.66,1.342-1.056c0.264,0.55,1.034,0.682,0.99,1.54c-3.366-0.132-6.601,0.439-9.967,0.748
		C5.514,19.9,5.36,19.504,5.162,19.042z M6.592,24.961c0.286-0.704,0.594-1.386,0.836-2.068c0.242-0.704,0.418-1.43,0.616-2.134
		h0.176c0.066,0.483,0.176,0.968,0.22,1.452c0.044,0.418,0.044,0.836,0.022,1.254C8.397,24.257,8,24.829,7.208,25.247L6.592,24.961z
		 M10.751,12.529c-0.374,0.242-0.638,0.418-0.902,0.616c-0.418-0.353-0.132-0.792-0.242-1.145c-0.088-0.374-0.154-0.77-0.242-1.232
		c0.594,0.133,0.792,0.704,1.364,0.99l-0.198-2.508C9.915,9.316,9.387,9.383,8.837,9.427l0.176,4.049
		c0.484,0.021,1.012,0.065,1.628,0.088L10.751,12.529z M9.519,24.719c0.132-0.813,0.22-1.584,0.352-2.508
		c0-0.265-0.022-0.727-0.066-1.232c0.44,0.528,1.056,2.09,1.078,2.75C10.575,24.169,10.399,24.785,9.519,24.719z M13.436,10.835
		V9.229h-1.65c0,0.727-0.022,1.452,0,2.179c0.022,0.726,0.11,1.452-0.396,2.2l2.024-0.396l0.176-1.782
		c-0.528,0.507-1.012,0.925-1.474,1.364c-0.022-0.044-0.066-0.065-0.11-0.109l0.616-2.772L13.436,10.835z M12.996,22.849
		c0.088,0.99-0.022,1.232-1.101,1.761c-0.066-0.221-0.198-0.463-0.176-0.66c0.198-1.034,0.22-2.068,0.022-3.125
		c0-0.044,0.044-0.109,0.088-0.286C12.401,21.309,12.885,21.969,12.996,22.849z M13.897,23.772c0.264-1.144,0-2.244-0.286-3.344
		c-0.022-0.066,0-0.154,0-0.242c1.078,0.572,1.915,2.024,1.76,3.103c-0.044,0.264-0.264,0.506-0.44,0.726
		c-0.176,0.176-0.396,0.286-0.638,0.44C13.941,24.323,13.854,24.059,13.897,23.772z M23.953,12.947L20.3,13.211l0.264,3.961
		c0.858,0.33,1.166-0.704,1.937-0.771c0.462,0.44,0.946,0.946,1.474,1.475l-0.748,1.145l0.286,3.124
		c0.066,0.814-0.682,1.87-1.672,2.223l-0.572-1.013l-3.411,0.132l-0.308-0.374v1.959c-0.418,0.088-0.396,0.813-1.079,0.616
		c0.242-2.971,0.022-5.897-0.308-8.978c0.242,0.198,0.396,0.374,0.616,0.572c0.572-0.066,1.232,0.308,1.937-0.022
		c0.154-2.816-0.066-5.566-0.242-8.405l-1.21-0.704l1.98-0.748c0.616,0.44,1.562,0.572,2.024,1.496
		c-0.836,0.946-1.342,1.959-0.836,3.19c0.44,0.221,0.902,0.132,1.232-0.088c0.352-0.198,0.572-0.594,0.902-0.968l1.562,1.276
		L23.953,12.947z M17.616,22.475c1.276,0.088,2.486,0.088,3.74-0.176v-4.181c-1.298,0.11-2.53,0.22-3.74,0.308V22.475z"/>
	<path d="M30.925,25.225c0.066-1.496,0.11-2.992,0.132-4.488c0.022-0.836,0-1.672,0-2.597c-1.408-0.044-2.464,0.551-3.542,1.32
		l-0.528-0.704l0.264-1.848h1.496c0.814-0.969,1.65-1.959,2.508-2.949l-0.352-0.704c-0.022,0-0.044,0.022-0.066,0.022l0.066,0.462
		l-2.2,0.616c0.022,0.044,0.022,0.066,0.022,0.11l-0.968-0.374c0.748-0.463,0.352-1.188,0.682-1.65
		c0.286-0.221,0.616-0.374,0.858-0.639c1.056-1.188,1.827-2.574,2.619-3.96c-0.066-0.265-0.154-0.551-0.264-0.88l1.694,0.176
		c0.374,0.439,0.66,0.902,0.726,1.54c-0.924,0.22-1.518,0.858-2.002,1.54c-0.528,0.748-1.298,1.387-1.518,2.377
		c0.66,0.197,1.232,0.241,1.782-0.066c0.462-0.792,1.144-1.496,0.88-2.553h0.88c0.374,0.639,0.77,1.255,1.188,1.98
		c-0.154,0.154-0.286,0.374-0.462,0.506c-1.452,0.99-2.596,2.333-3.829,3.587c-0.11,0.11-0.154,0.308-0.22,0.462
		c0.594,0.309,1.716,0.286,2.442-0.021c0.242-0.639-0.264-1.188-0.286-1.915c0.792,0.33,1.254,0.925,1.804,1.408
		c0.638,0.551,0.77,1.276,0.836,2.091c-0.088,0.109-0.176,0.286-0.308,0.462c-0.132-0.044-0.264-0.088-0.462-0.176l0.286,0.726
		l1.364-0.198c0.418-0.065,0.836-0.109,1.342-0.176c0.066-0.968-0.484-1.826-0.44-2.794l-1.628,0.396l-0.066-0.153l3.895-2.112
		c-0.264-0.902-0.528-1.738-0.814-2.663c-0.946,0.286-1.826,0.551-2.772,0.858l-0.748-1.101c1.1-0.109,2.09-0.22,3.146-0.308
		l-0.176-2.706l-1.123-0.814l0.044-0.132c0.66-0.044,1.144-0.946,1.892-0.462c0.418,0.286,1.254,0.264,1.144,1.166
		c-0.132,0.198-0.33,0.418-0.462,0.594v1.826c0.77,0.33,2.024,0.132,2.486-0.352l-0.352-0.132c-0.418-0.727-0.77-1.387-1.21-2.179
		c0.727,0.11,1.342,0.176,1.937,0.308c0.396,0.089,0.462,0.309,0.594,1.057c0.77,0.264,1.342,0.771,2.024,1.298l-0.792,0.969
		l-1.056-0.154l-0.088,0.132l0.77,1.078c0.022,0.55-0.352,0.704-0.77,0.858c-0.374,0.132-0.682,0.396-1.1,0.638
		c0.594,0.44,1.254,0.551,1.958,0.836c0.308-0.638,0.572-1.254,0.858-1.87h0.132c0,0.198,0.022,0.396,0.022,0.595
		c0,0.836,0.176,1.628,0.638,2.354c0.11,0.198,0.132,0.484,0.198,0.771c-2.354,0.836-4.049-0.22-5.611-1.694
		c-0.924,0.353-1.804,0.704-2.729,0.99l0.044,0.242l1.672,0.374l-0.22,0.968c0.022,0.286,0.066,0.595,0.132,0.969
		c0.22,0,0.44,0.021,0.66,0c0.528-0.044,1.034-0.088,1.562-0.177c0.198-0.044,0.396-0.132,0.55-0.264
		c0.375-0.264,0.749-0.55,1.145-0.88c0.594,0.22,1.034,0.594,1.342,1.21l-0.55,0.506h-1.848c0.154,0.66,1.078,0.902,0.77,1.694
		c-0.264,0.176-0.55,0.309-0.77,0.528c-0.22,0.198-0.374,0.462-0.616,0.77c0.55,0.749,1.452,1.079,2.354,1.364
		c0.77-0.462,0.836-1.298,1.276-1.979c-0.176,1.43,0.616,2.574,1.188,3.784l-0.726,0.682c-2.398,0.154-4.203-0.901-5.567-2.771
		c-2.223,1.76-4.621,3.08-7.393,3.718c2.354-1.364,4.643-2.772,6.557-4.708c-0.308-0.969-1.034-1.761-0.858-2.905
		c-0.11,0.177-0.22,0.33-0.242,0.396l-2.728,0.727l-1.65-1.387c-0.088-0.242-0.22-0.682-0.374-1.1
		c-0.616-0.133-0.836-0.11-1.21,0.132l0.814,0.902l-0.374,0.527c0.022,0.44,0.088,0.792,0.088,1.166
		c0.044,1.211,0.11,2.398,0.088,3.609c-0.022,0.726-0.22,1.408-0.726,1.979c-0.154,0.177-0.374,0.286-0.572,0.418
		C30.947,25.973,30.903,25.644,30.925,25.225z M27.603,24.499l-0.33-0.44c0.11-0.286,0.154-0.572,0.308-0.77
		c0.77-1.122,1.408-2.289,1.694-3.697C30.683,20.78,30.155,23.949,27.603,24.499z M34.357,22.562
		c-0.022-0.044-0.066-0.065-0.11-0.088l-0.154,0.44c-0.066-0.022-0.11-0.066-0.154-0.088c-0.308-1.079-0.594-2.157-0.924-3.279
		c0.154,0.044,0.308,0.044,0.418,0.11c0.55,0.33,1.166,0.616,1.606,1.057c0.308,0.308,0.462,0.857,0.572,1.319
		c0.066,0.396-0.286,0.683-0.594,0.881c-0.176,0.109-0.396,0.132-0.704,0.22C34.335,22.827,34.357,22.694,34.357,22.562z
		 M41.552,18.954c-0.836-0.22-1.43,0.022-2.134,0.264c0.22,0.507,0.418,0.925,0.66,1.519L41.552,18.954z M39.814,15.676l1.628,0.594
		c0.22,0.462,0.308,0.836-0.022,1.276l-0.726,0.33l-0.44-0.22l-0.55-1.849L39.814,15.676z M39.924,11.297l0.968,1.54
		c0.726-0.462,1.276-0.99,1.849-1.694C41.729,10.945,40.892,11.077,39.924,11.297z"/>
	<path d="M67.051,23.839c-0.616,0.638-1.255,1.254-1.629,2.2l-4.334,0.132c-1.145,0.022-2.267-0.065-3.389-0.264
		c-2.333-0.418-4.071-1.628-5.127-3.763l-0.484-1.078l-2.618,2.904l-1.583-1.298c1.694-1.166,3.014-2.751,4.642-4.203
		c0.066,0.462,0.088,0.748,0.132,1.145c3.477-2.641,7.063-5.061,10.342-8.119c-1.98,0.11-3.829,0.33-5.655,0.638
		c-1.826,0.309-3.63,0.814-5.456,1.232l-0.683-1.628c0.836-0.198,1.628-0.176,2.267-0.022c1.43-0.153,2.706-0.264,4.049-0.396
		c0.396-0.946,0.065-1.937,0.153-2.927l-1.21-0.352c0.506-0.396,0.946-0.771,1.364-1.123c0.748,0.154,1.475,0.265,2.179,0.463
		c0.264,0.065,0.483,0.308,0.813,0.527l-0.77,0.99l-0.353,2.244c1.387-0.109,2.662-0.241,3.917-0.352l1.65-1.937
		c0.109,0.088,0.197,0.154,0.241,0.22c0.396,0.551,0.771,1.123,1.145,1.673c0.286,0.396,0.44,0.814,0.286,1.32
		c-0.353,0.483-0.968,0.439-1.452,0.66c-0.66,0.286-1.387,0.506-2.024,0.857c-1.32,0.704-2.618,1.431-3.895,2.223
		c-1.101,0.66-2.179,1.387-3.257,2.135c-1.078,0.77-2.112,1.584-3.146,2.376c0.286,0.836,0.727,1.386,1.364,1.914
		c1.299,1.101,2.816,1.408,4.379,1.54c0.99,0.066,1.98-0.088,2.971-0.22c2.398-0.286,4.841-0.506,7.194-1.1
		c0.044-0.022,0.11,0.021,0.309,0.088C68.568,23.047,67.666,23.179,67.051,23.839z"/>
	<path d="M72.196,25.599c-0.748-0.55-1.475-1.078-2.201-1.584c1.475-0.506,2.927-0.99,4.357-1.452
		c0.197-1.32-0.088-2.552-0.286-3.828c-0.99,0.418-1.958,0.792-2.86,1.166l-0.99-1.54c1.364-0.132,2.685-0.286,3.982-0.418
		c0.308-0.396,0.616-0.771,0.924-1.188c0.506,0.418,0.99,0.792,1.519,1.21l-0.814,1.013c-0.044,0.968-0.109,1.979-0.132,2.992
		c0,0.198,0.132,0.418,0.176,0.55c0.969,0.902,2.135,1.122,3.279,1.254c1.474,0.177,2.97,0.11,4.466,0.11
		c1.585-0.021,3.19-0.044,4.775-0.088c0.836-0.022,1.649-0.132,2.464-0.198c0.132,0,0.264,0,0.44,0.066
		c-1.496,0.527-2.971,1.078-3.917,2.53h-2.134c-1.167,0-2.333,0.065-3.521-0.022c-0.683-0.044-1.364-0.286-2.068-0.483
		c-0.881-0.242-1.761-0.507-2.619-0.771c-0.792-0.242-1.254-0.902-1.804-1.431c-0.088-0.088-0.154-0.176-0.264-0.33L72.196,25.599z
		 M76.179,14.268c0.132,0.99-0.484,1.87-1.606,2.332l-0.528-0.418c-0.527-1.298-0.99-2.574-2.002-3.608
		C73.472,13.079,74.969,13.344,76.179,14.268z M73.935,8.371c0.924,0.264,1.693,0.813,2.354,1.54
		c0.221,1.188-0.418,1.562-1.584,2.134l-0.528-0.396c-0.197-1.364-0.88-2.53-1.54-3.697C73.164,8.129,73.538,8.261,73.935,8.371z
		 M80.249,13.783c0.309-0.439,0.66-0.968,0.792-1.716c-1.276-0.044-2.42,0.396-3.652,0.33c-0.308-0.44-0.66-0.902-1.078-1.475
		l3.542-0.132c-0.088-1.364-0.527-2.574-1.275-3.696c0.946,0.088,2.86,0.99,3.212,2.244c-0.065,0.594-0.308,1.078-0.902,1.43h2.245
		l1.254-2.75c-0.242-0.264-0.462-0.506-0.792-0.836l1.738-0.309c0.396,0.265,0.792,0.507,1.166,0.771
		c0.33,0.22,0.484,0.528,0.462,0.968l-3.08,2.2l2.552-0.241l1.145-1.057c1.342,0.727,1.782,1.408,1.32,2.267h-6.271l-0.065,0.176
		l0.66,0.572c-0.132,0.572-0.946,0.616-1.21,1.254c0.726-0.132,1.364-0.308,1.892,0l0.946-0.176l0.727-1.057l1.584,1.299
		c-0.66,0.902-0.462,1.826-0.44,2.75c0,1.408,0.044,2.839-0.065,4.225c-0.044,0.683-0.221,1.387-0.837,1.849
		c-0.264,0.198-0.462,0.483-0.704,0.748l-0.483-0.286c0.044-0.506,0.065-0.946,0.132-1.519c-1.628,0.11-3.124,0.242-4.621,0.353
		c-0.197,0.704-0.396,1.276-1.034,1.628l-0.55-0.374c0.374-3.477-0.044-6.865-0.198-10.43L80.249,13.783z M84.166,18.47
		l-0.154,0.704l-3.873,0.286v1.431c1.562,0.154,3.059-0.221,4.621-0.242c0.198-2.135,0.11-4.225-0.044-6.381l-4.488,0.33
		l-0.177,1.937c1.408-0.133,2.685-0.265,4.071-0.419c-0.022,0.309-0.045,0.484-0.045,0.683l-4.026,0.308l-0.264,0.33
		c0.44,0.374,0.286,0.858,0.264,1.364L84.166,18.47z"/>
</g>
</svg>
