<?xml version="1.0" encoding="utf-8"?>
<!-- Generator: Adobe Illustrator 21.0.1, SVG Export Plug-In . SVG Version: 6.00 Build 0)  -->
<svg version="1.1" id="图层_1" xmlns="http://www.w3.org/2000/svg" xmlns:xlink="http://www.w3.org/1999/xlink" x="0px" y="0px"
	 viewBox="0 0 198 22" style="enable-background:new 0 0 198 22;" xml:space="preserve">
<g>
	<path d="M18.7,8l-0.8-0.6c0.5-0.3,0.8-0.6,1.3-0.8c0,0,0.1,0,0.1,0c0.7,0.2,1.4,0.3,2,0.7l0.3,0.1l-0.9,1c0,0.5,0.1,1.1,0.1,1.7
		c0.8-0.1,1.6-0.1,2.6-0.2l1.2-1.1c0.8,0.3,1.7,0.8,2.2,1.9c-0.1,0.1-0.1,0.3-0.3,0.5h-5.7c0,0.9,0.1,1.7,0.1,2.5
		c0,1.5,0.1,2.9-0.1,4.4c-0.1,1.1-0.6,1.8-1.3,2.5c-0.3,0.3-0.7,0.5-1.2,0.3l-0.2-0.7c-0.4-0.5-0.9-0.9-1.6-0.9
		c0.3-0.3,0.3-0.3,1.7-0.4c0.5-0.5,0.5-1.2,0.6-1.9c0.1-1.4,0.1-2.9,0-4.3c0-0.4,0-0.8,0-1.3c-3.3,0.2-6.5,0.5-9.5,1.6
		c-0.4-0.7-0.7-1.4-1.1-2.1l10.5-0.5L18.7,8L18.7,8z M11.1,4.4c0.1,0,0.1,0,0.2,0c0.3,0.4,0.6,0.8,0.9,1.3l4.3-0.2l-0.2-2.7
		c-0.3-0.2-0.7-0.4-1-0.6l1.4-1.1L19.5,2c0.3,0.8-0.3,1-0.8,1.4l-0.1,1.9L22.8,5l1.1-0.9c0.7,0.5,1.4,1,2,1.5
		c0.2,0.2,0.3,0.6,0.5,0.9c-0.1,0.2-0.1,0.4-0.3,0.7l-3.4,0.5l0.5-1.9C19.6,5.9,16,6,12.4,6.6L12,9.1l-1.6,1
		C9.9,9.9,9.9,9.5,9.7,9.2C10.5,7.6,11.2,6.1,11.1,4.4z M17.2,14c0.4,0.6,0.3,1.5-0.3,1.9c-0.4,0.3-0.8,0.7-1.4,0.7l-0.5-0.5
		c0.1-1.2,0-2.4-0.4-3.5C15.6,12.9,16.6,13,17.2,14z"/>
	<path d="M33.6,15.2h4.6c0.2-2.4,0.2-4.7,0.2-7.1c-0.1,0.1-0.2,0.1-0.2,0.2c-1.2,2.6-2.9,4.9-5.2,6.6c-1.4,1.1-2.8,2-4.3,3
		c-0.1,0.1-0.3,0.1-0.4,0.2L28,18.1c0.1-0.1,0.3-0.3,0.4-0.4c0.9-0.7,1.9-1.4,2.8-2.2c1.3-1.2,2.5-2.6,3.4-4.1
		c0.8-1.3,1.5-2.5,2.1-3.9c0.1-0.2,0.2-0.3,0.3-0.6l-4.9,0.8v0.1l-0.5-0.1l-0.9-1.4c1.3,0,2.5-0.1,3.7-0.1c1.2,0.1,2.5-0.3,3.7,0
		c-0.1-0.8-0.1-1.7-0.3-2.6c-0.1-0.4-0.5-0.8-0.8-1.2l1.6-0.8l2.1,1.1c-0.1,0.8-0.4,1.3-1,1.7L40,5.9h3.5c0.2-0.2,0.3-0.4,0.5-0.6
		c0.2-0.1,0.4-0.2,0.6-0.3c1.1,0.5,1.7,1.2,1.8,1.9c-0.2,0.1-0.4,0.2-0.5,0.3C44.3,7,42.6,6.8,41,6.8c-0.1,0.6,0.2,1.1,0.4,1.5
		c0.1,0.3,0.3,0.6,0.4,0.9c0.2,0.4,0.4,0.7,0.7,1c0.7,0.8,1.5,1.6,2.3,2.2c0.8,0.7,1.8,1.2,2.7,1.7c0.5,0.3,1.1,0.7,1.6,1.1
		c-0.6,0.1-1.1-0.1-1.6-0.4l-0.3,0.4c-0.6,0.2-1.2,0.4-1.7,0.5c-0.8-0.6-1.6-1.1-2.3-1.8c-0.9-0.8-1.6-1.9-2-3.1
		c-0.4-1.2-0.7-2.5-0.8-3.8c0-0.1-0.1-0.2-0.1-0.3c-0.1,0-0.3,0-0.4,0l0.2,8.3c0.7-0.1,1.6-0.1,2.1-1c0.5,0.4,0.9,0.7,1.3,1
		c-0.1,0.5-0.2,0.7-0.8,0.7H40v2.3c0,1-0.4,1.8-1.2,2.5l-0.6-0.2v-4.5c-1.4,0.2-2.8,0.3-4.1,0.5C33.9,16,33.7,15.6,33.6,15.2z"/>
	<path d="M50.4,20.9c2.5-1.2,4.8-2.5,6.8-4.5c0.4,0.5,0.8,0.9,1.3,1.5l-1.2,0.5l-2.4,1l-4,1.6c-0.1,0-0.3,0-0.4,0.1L50.4,20.9z
		 M63.9,15.2l-0.2-1.3h-5.4l-0.1,0.9l-0.7,0.3l-0.4-0.2c0-0.1-0.1-0.1-0.1-0.1c0.1-2.2,0.1-4.3,0.1-6.5c0-0.3-0.2-0.6-0.3-0.8
		c-0.1-0.2-0.2-0.3-0.4-0.5l1.3-0.1c2,0.3,4,0.1,6.1,0.1c0.3-0.3,0.6-0.6,1-1c0.3,0.2,0.8,0.4,1.3,0.7c0.2,0.1,0.2,0.3,0.3,0.5
		l-0.6,0.9c-0.1,1.6-0.1,3.2-0.3,4.7c0,0.6-0.4,1.1-0.6,1.7c-0.1,0.2-0.2,0.3-0.4,0.6h1.2l1.3-1.5l1.7,1.9l-0.4,0.8
		c-2.5-0.2-4.8-0.5-7.2-0.5c-2.3,0-4.6,0.3-6.9,0.4c-0.1,0.7-0.5,1.1-1,1.5l-0.5-0.5c0.3-2.9,0.4-5.8,0.2-8.8
		c-0.3-0.3-0.7-0.6-1.1-0.9c1.2-0.6,2,0,2.8,0.5c-0.1,0.7-0.2,1.4-0.2,2c-0.1,1.6-0.1,3.1-0.1,4.6c0,0.2,0,0.3,0,0.6
		c0.2,0,0.4,0.1,0.6,0.1c1.8,0,3.6-0.1,5.3-0.1l2.9-0.1L63.9,15.2L63.9,15.2z M53,1.8l1.3-0.2l1.5,1l-0.3,0.5c0.6,0.2,1.1,0,1.7-0.1
		c1.6-0.2,3.3-0.5,4.9-0.6c0.9-0.1,1.5-0.6,2-1.2L64.3,1c0.5,0.5,0.9,0.9,1.4,1.3c0.2,0.2,0.2,0.5-0.1,0.8c-0.1,0-0.3,0-0.4,0
		l-2,0.1c-1.3,0-2.7,0.2-4,0.4c-1.1,0.2-2.3,0.1-3.4,0.2l-0.3,0l-0.2,1c3.2,0.3,6.3-0.1,9.6-0.1c0.4-0.4,0.9-0.8,1.5-1.3L67.7,5
		c-0.1,0.3-0.2,0.4-0.3,0.7c-4.6-0.6-9.2-0.5-13.7,0.1c-0.6-1.1,0.1-2,0-3.2L53,1.8z M63,9.2c-0.1,0.5-0.4,0.4-0.7,0.4
		c-0.8,0-1.6,0-2.4,0c-0.5,0-1,0.1-1.6,0.1v1.6L63,11l-0.1,0.7L58.3,12v1.3c1.8,0.2,3.6,0,5.5,0c0.1-2,0.2-3.9,0.4-5.8l-5.8,0.3v1.5
		L63,9.2L63,9.2z M67.4,18.6c0.4,1.1-0.2,2.4-1.3,2.6c-1.7-1.9-3.8-3.4-5.9-4.8C62.6,17.1,65.1,17.6,67.4,18.6z"/>
	<path d="M71.7,17.2c1.3-2.2,2-4.7,2.4-7.4c0.4,0.5,0.8,1.1,0.8,1.7c0,1.8-0.1,3.5-0.6,5.2c-0.3,0.9-0.9,1.3-1.7,1.5
		c-0.2,0.1-0.5,0-0.8,0L71.7,17.2z M82.7,13.2c0.4,1.2,1,2.3,1.7,3.2c0.3,0.4,0.6,0.6,1,0.8c0.7,0.2,0.9,0.5,0.7,1.2
		c0,0.3-0.2,0.6-0.3,0.9c-0.8,0.1-1.7,0.3-2.5,0.4c-1,0.1-2,0.1-3,0.1c-1.2,0-2.6-0.9-3.1-2.1C77.1,17,77,16.2,77,15.3
		c-0.1-1.5-0.1-2.9-0.1-4.4c0-0.8-0.1-1.5-0.2-2.3l-1.1-0.3c0,0,0-0.1,0-0.1l1.6-0.7c0.7,0.3,1.3,0.6,1.7,1.3
		c-0.8,0.7-0.7,1.7-0.7,2.6c-0.1,1.3-0.1,2.7,0.2,4.1c0.1,0.5,0.3,1,0.5,1.4c0.2,0.3,0.7,0.6,1.1,0.6c1,0.1,2,0.1,3,0.1
		c0-1.2-0.2-2.3-0.4-3.3c-0.2-1.1-0.4-2.1-0.6-3.2c0,0,0.1,0,0.1,0C82.3,11.9,82.4,12.5,82.7,13.2z M78.9,2.8
		c0.6,0.6,1.3,1.2,1.9,1.7l1.6-1.1l0.1,0.1l-0.2,0.3c-0.6,0.7-0.9,1.4-0.7,2.3c0,0.2-0.1,0.6-0.3,0.7c-0.4,0.3-0.8,0.5-1.3,0.8
		c-0.3-0.3-0.5-0.4-0.7-0.7c-0.1-1.7-0.3-3.3-1.4-4.7C78.4,2.3,78.7,2.6,78.9,2.8z M82.3,8.6c2.1,0.8,4.2,1.3,6.1,2.5
		c0.6,0.4,1.1,1,1.2,1.7c0.1,0.7-0.2,1.3-0.8,1.8c-0.1,0.1-0.3,0.2-0.5,0.3c-0.9,0.1-1.1-0.1-1.4-0.9c-0.8-1.7-1.8-3.3-3.3-4.4
		c-0.3-0.2-0.7-0.4-1.1-0.6c-0.1-0.1-0.3-0.1-0.4-0.2c0,0,0-0.1,0-0.1C82.2,8.6,82.2,8.6,82.3,8.6z"/>
	<path d="M116.2,18.1c-0.1-1.4,0.1-2.7-0.2-4.2l-4.8,0.7c-0.3-0.4-0.6-0.8-0.9-1.2l5.7-0.3v-2.7l-0.4-0.6l-0.1-0.1l0.6-0.4
		c-0.9,0.2-1.7,0.4-2.5,0.6c-0.8,0.2-1.6,0.6-2.4,0.5l-1-1.9h2.3c1.1-1.3,2.3-2.6,3.3-4.1c-2.1-0.1-4.1,0.4-6,0.7
		c-0.4-0.5-0.7-0.9-1-1.3c4.3-0.1,8.5-0.3,12.8-0.5c0.4-0.3,0.8-0.7,1.3-1.1l2.2,2.1c-0.3,0.2-0.6,0.4-0.8,0.5
		c-1.9-0.5-3.9-0.4-5.8-0.5c-0.2,0-0.3,0.1-0.5,0.2l0.1,0.6c-1.5,0.7-2.6,2-3.9,3.1c0,0,0,0.1,0,0.2c0.6,0.2,4.7-0.1,5.8-0.4
		c-0.3-0.8-1.1-1.3-1.6-1.9c0,0,0-0.1,0-0.1c0.2,0,0.4,0,0.6,0c1.3,0.3,2.5,0.8,3.4,1.7c0.2,0.2,0.4,0.4,0.6,0.7
		c0.3,0.7,0.3,1.5-0.7,2c-1,0-1.2-0.8-1.7-1.4c-0.8-0.1-1.5-0.1-2.3,0.2C118.2,9,117.8,9,117.5,9c-0.2,0-0.3,0-0.5,0
		c0,0.1,0,0.1,0,0.1c0.5,0.3,0.9,0.5,1.5,0.8c-0.1,0.3-0.2,0.6-0.4,0.8c0,0,0,0-0.1,0l-0.1,2.1h2.3l1.3-0.9l1.7,1.6l-0.6,0.6
		c-1.5-0.4-3-0.4-4.5-0.2v4.1c0.8-0.1,1.4-0.2,2.1-0.2c0.3,0,0.7,0,1,0.1c0.9,0,1.8-0.1,2.5-0.7c0.2-0.2,0.4-0.3,0.6-0.5l2,2l-1,0.5
		c-0.5-0.1-0.9-0.4-1.4-0.4c-1.1-0.1-2.3-0.2-3.4-0.2c-1.7,0-3.3,0.1-5,0.2c-1.5,0.1-3,0.2-4.4,0.5c-0.7,0.1-1.6,0.1-2.2,0.6
		c-0.1,0.1-0.3,0.1-0.4,0.1l-1.2-1.5L116.2,18.1z"/>
	<path d="M134.4,7c0,0,0.1,0,0.1,0l0.3-1.8c-0.8-0.2-1.3-0.1-1.9,0.4c-1.2,1-2.4,1.9-3.7,2.8c-0.1,0.1-0.3,0.1-0.5,0.2
		c0,0-0.1-0.1-0.1-0.1c0.1-0.1,0.1-0.2,0.2-0.3c1.6-1.3,3.1-2.8,4.3-4.5c0.4-0.6,0.7-1.3,0.6-2.1c0.3-0.1,0.6-0.3,0.9-0.4l1.6,1.5
		l-1.7,1.3c1.4,0.2,2.5,0.1,3.4-1.1l0.8,1.4c-0.2,0.3-0.4,0.5-0.6,0.8c-0.9,0-1.8-0.1-2.9-0.2l1.2,1.1c-0.1,0.7-0.6,1.2-1.5,1.6
		L134.4,7z M140.9,12.4l1.1,1.1l-0.4,0.5c0.1,1.5,0.2,3.1-0.1,4.5c-0.2,1.2-1.1,1.8-2.2,2.3c-0.3-0.6-0.1-1.4-0.9-1.7
		c0,0,0-0.1,0-0.1c0.5-0.1,0.9-0.2,1.3-0.3c0.1-0.4,0.2-0.7,0.2-1c0.1-1.2,0.1-2.4,0.1-3.8c-1.2,0.1-2.3-0.1-3.3,0.2v0.8
		c0.7-0.1,1.5-0.2,2.3-0.3c0,0,0-0.1,0-0.1l0.6,0.7c-0.5,0.4-1,0.2-1.5,0.3c-0.5,0.1-1,0.1-1.6,0.1c0,0.3,0,0.5,0,0.9l2.7-0.2
		c0.1,0.1,0.3,0.3,0.5,0.7c-1.2,0.1-2.2,0.1-3.2,0.2c-0.7,1.9-2.1,3.1-3.7,4.2c-0.1,0-0.1-0.1-0.1-0.1c0.1-0.1,0.2-0.3,0.3-0.4
		c0.8-0.8,1.5-1.6,1.9-2.7c0.2-0.5,0.3-1.1,0.4-1.7c0.1-1.3,0.1-2.7,0.2-4.1l-2.7,0.5v3.2c0,0.8,0,1.7,0,2.5c0,1.1-0.6,1.8-1.4,2.5
		c-0.3-0.3-0.4-0.5-0.3-0.8c0.3-3.3,0.3-6.7,0.3-10.1V8.8l-0.8-0.7l1.2-0.9c0.5,0.3,1.1,0.7,1.6,1c0.8-0.1,1.5-0.1,2.5-0.2l0.8-1
		l1.3,1.3c-0.3,0.2-0.5,0.4-0.7,0.6v2.6h1c0,0,0,0.1,0,0.1c-0.7,0.4-1.5,0.4-2.4,0.7c0.4,0.3,0.7,0.7,1,0.9h3.4L140.9,12.4
		c-0.5,0-1,0-1.5,0c0.1-1.9,0.1-3.8,0.1-5.7l1.2,0.7c0.7-0.7,1.2-1.5,1.6-2.5h-2.1c-0.9,0.7-1.7,1.7-2.9,2.3
		c1.2-1.8,2.5-3.5,3.1-5.6c-0.1-0.2-0.1-0.3-0.2-0.5c0.4-0.2,0.4-0.3,1.2-0.2l1.5,1.5c-0.9,0.4-1.5,0.9-1.9,1.7h3.4l1.2-1.5
		c0.6,0.6,1.1,1.1,1.6,1.7L146.6,5l-2.8-0.2l0.4,0.6c-0.8,0.7-1.5,1.4-2.4,2.1h1.6l0.9-0.8c0.6,0.2,0.9,0.7,1.3,1.1l-0.6,0.6
		l0.2,3.7l0.2,3.7c0,0.9,0.1,1.9,0.1,2.8c0,1-0.7,2.2-1.6,2.8l-0.4-0.6c0.4-2.9,0.1-5.6,0.1-8.4C142.7,12.4,141.8,12.4,140.9,12.4z
		 M135.3,10.6l-2.4,0.2l-0.1,1.2l2.5-0.3L135.3,10.6L135.3,10.6z M132.8,10.1l2.4-0.3V8.9c-0.8,0.1-1.6,0.1-2.4,0.1V10.1z
		 M143.5,10.2c-0.9,0-1.7,0.1-2.5,0.1v1.3l2.6-0.1L143.5,10.2z M143.4,8.4h-2.3v1.2c0.8-0.1,1.5-0.1,2.3-0.1V8.4z"/>
	<path d="M158.3,18.1c-0.1-1.4,0.1-2.7-0.2-4.2l-4.8,0.7c-0.3-0.4-0.6-0.8-0.9-1.2l5.7-0.3v-2.7l-0.4-0.6l-0.1-0.1l0.6-0.4
		c-0.9,0.2-1.7,0.4-2.5,0.6c-0.8,0.2-1.6,0.6-2.4,0.5l-1-1.9h2.3c1.1-1.3,2.3-2.6,3.3-4.1c-2.1-0.1-4.1,0.4-6,0.7
		c-0.4-0.5-0.7-0.9-1-1.3c4.3-0.1,8.5-0.3,12.8-0.5c0.4-0.3,0.8-0.7,1.3-1.1l2.2,2.1c-0.3,0.2-0.6,0.4-0.8,0.5
		c-1.9-0.5-3.9-0.4-5.8-0.5c-0.2,0-0.3,0.1-0.5,0.2l0.1,0.6c-1.5,0.7-2.6,2-3.9,3.1c0,0,0,0.1,0,0.2c0.6,0.2,4.7-0.1,5.8-0.4
		c-0.3-0.8-1.1-1.3-1.6-1.9c0,0,0-0.1,0-0.1c0.2,0,0.4,0,0.6,0c1.3,0.3,2.5,0.8,3.4,1.7c0.2,0.2,0.4,0.4,0.6,0.7
		c0.3,0.7,0.3,1.5-0.7,2c-1,0-1.2-0.8-1.7-1.4c-0.8-0.1-1.5-0.1-2.3,0.2C160.2,9,159.9,9,159.6,9c-0.2,0-0.3,0-0.5,0
		c0,0.1,0,0.1,0,0.1c0.5,0.3,0.9,0.5,1.5,0.8c-0.1,0.3-0.2,0.6-0.4,0.8c0,0,0,0-0.1,0l-0.1,2.1h2.3l1.3-0.9l1.7,1.6l-0.6,0.6
		c-1.5-0.4-3-0.4-4.5-0.2v4.1c0.8-0.1,1.4-0.2,2.1-0.2c0.3,0,0.7,0,1,0.1c0.9,0,1.8-0.1,2.5-0.7c0.2-0.2,0.4-0.3,0.6-0.5l2,2l-1,0.5
		c-0.5-0.1-0.9-0.4-1.4-0.4c-1.1-0.1-2.3-0.2-3.4-0.2c-1.7,0-3.3,0.1-5,0.2c-1.5,0.1-3,0.2-4.4,0.5c-0.7,0.1-1.6,0.1-2.2,0.6
		c-0.1,0.1-0.3,0.1-0.4,0.1l-1.2-1.5L158.3,18.1z"/>
	<path d="M190.2,18.6c-0.8-0.2-1.5,0.2-2.1,0.6l-1,0.7c-0.7-0.4-1.2-0.8-1.9-1.1c-0.9-0.4-1.7-1.1-2.4-1.8c-0.7-0.7-0.9-1.6-1-2.6
		v-0.3c-0.3,0-0.6,0.1-0.9,0.2c-0.4,1.5-1.4,2.4-2.5,3.1c-0.8,0.5-1.7,1-2.6,1.4c-1.1,0.5-2.3,1.1-3.4,1.5c-0.8,0.3-1.7,0.5-2.5,0.7
		l-0.1-0.1c0.1-0.1,0.2-0.2,0.3-0.2c1.3-0.4,2.6-0.9,3.8-1.6c1-0.7,2.2-1.1,3-2.1c0.2-0.3,0.4-0.4,0.7-0.6c0.7-0.5,1-1.3,1.3-2.2
		l-6.5,0.5c-0.1-0.5-0.3-0.9-0.4-1.5c2.4-0.1,4.7-0.1,7.1-0.2l0.2-1l-0.5-0.5l0.4-0.4c-0.5-0.2-1.1,0.2-1.4-0.2
		c-0.4,0.1-0.8,0.2-1.2,0.2c-0.8,0.1-1.7,0.1-2.6,0.2l-0.2-1.3h2.9c0.9,0,1.9,0,2.8,0l0.1-1.5c-1.4-0.1-2.7,0-4.1,0.2V7.7h3.9
		l0.2-1.7c-1.3,0.1-2.5,0.2-3.8,0.1c-0.6,0.1-1.3,0.2-2.1,0.4l-0.1-1.1c0.3-0.1,0.5-0.2,0.7-0.2c0.9,0,1.8,0,2.7-0.1
		c0.3,0,0.6,0,0.9,0c-0.2-0.2-0.4-0.4-0.5-0.4L176.3,1c1,0.5,2,0.8,2.8,1.6c0.3,0.3,0.4,0.9,0.5,1.2c-0.1,0.9-0.9,0.9-1.3,1.4
		c0.2,0.1,0.3,0.2,0.4,0.2V5.3c0.7-0.1,1.5-0.2,2.3-0.3c0.8-0.8,1.2-1.9,1.7-3l-0.4-0.8c0.5-0.1,1-0.5,1.5-0.1
		c0.6,0.5,1.4,0.8,1.6,1.6l-3,2.2c0,0,0,0.1,0,0.1c0.6,0.1,1.3,0,1.9,0l1.4-1c1,0.8,1.2,1.2,0.9,1.9h-4.5c0,0.2-0.1,0.5-0.1,0.7
		l-0.4,0.4l0,0.5c1.1,0.5,1.8-0.3,2.5-0.8c0.9,0.4,1.5,1.2,1.3,1.8c-1.2,0-2.4-0.1-3.7,0c0,0.5-0.1,0.9-0.1,1.4c0.6,0,1.1,0,1.6,0
		c0.4,0,0.8,0,1.2-0.1c0.4-0.2,0.8-0.4,1.1-0.7c0.1-0.1,0.2-0.1,0.2-0.1c0.5,0.4,0.9,0.8,1.3,1.2c0.1,0.2,0.2,0.5,0.2,0.7
		c-0.6,0.2-2.7,0.1-2.9,0h-3.4v0.1l1,0.5c0.2,0.6-0.7,0.9-0.3,1.5h4c0.4-0.4,0.9-0.7,1.3-1.1c0.8,0.2,0.9,1,1.5,1.4v0.9
		c-0.7-0.1-1.3-0.1-1.9-0.2c-0.7,0-1.3,0-1.9,0h-1.9c0,0.7,0.5,1.1,1,1.4c0.7,0.5,1.4,0.9,2.1,1.3c1.2,0.6,2.5,1.1,3.9,1.4l0.5,0.1
		L190.2,18.6L190.2,18.6z"/>
</g>
</svg>
