<?xml version="1.0" encoding="utf-8"?>
<!-- Generator: Adobe Illustrator 17.0.0, SVG Export Plug-In . SVG Version: 6.00 Build 0)  -->
<!DOCTYPE svg PUBLIC "-//W3C//DTD SVG 1.1//EN" "http://www.w3.org/Graphics/SVG/1.1/DTD/svg11.dtd">
<svg version="1.1" id="图层_1" xmlns="http://www.w3.org/2000/svg" xmlns:xlink="http://www.w3.org/1999/xlink" x="0px" y="0px"
	 width="190px" height="55.281px" viewBox="0 0 190 55.281" enable-background="new 0 0 190 55.281" xml:space="preserve">
<g>
	<path d="M4.913,8.08C4.872,8.101,4.746,8.227,4.62,8.352H1.587C1.503,8.059,1.44,7.745,1.336,7.327h6.171
		C7.8,6.972,8.051,6.7,8.281,6.407c0.983,0.607,1.318,1.151,1.13,1.674H4.913z M2.696,4.9H6.9l0.732-1.046
		c0.355,0.376,0.627,0.69,0.899,1.004C8.511,5.068,8.49,5.277,8.449,5.507c-1.841,0.104-3.64,0.188-5.481,0.272
		C2.863,5.444,2.779,5.214,2.696,4.9z M3.072,11.03l-0.355-0.9c0.732-0.167,1.443-0.021,2.175-0.083
		C5.625,9.984,6.356,9.963,7.151,9.9l0.565-0.795c0.628,0.606,0.69,0.837,0.376,1.381L3.072,11.03z M3.553,15.988l-0.774-0.711
		l1.13-0.439c0.293,0.209,0.585,0.397,0.857,0.565l1.736-0.23c0.042,0.062,0.105,0.104,0.146,0.146l0.858-1.046
		c0.585,0.439,1.171,0.879,1.485,1.632c-0.586,0.502-0.272,1.171-0.335,1.799c-0.021,0.397,0,0.816,0,1.234
		C7.403,19,6.168,19.084,4.955,19.168c-0.063,0.544-0.063,1.046-0.209,1.485c-0.125,0.397-0.167,0.92-0.69,1.15
		c-0.146-0.167-0.251-0.334-0.335-0.439C3.658,19.461,3.595,17.682,3.553,15.988z M8.281,12.369l0.209,0.753L3.24,13.54l-0.167-0.92
		l3.954-0.125l0.523-0.649L8.281,12.369z M4.892,18.268c0.711-0.063,1.339-0.105,2.008-0.146l-0.272-2.134
		c-0.669,0.083-1.234,0.167-1.736,0.251V18.268z M13.72,10.925l0.879-0.083l0.125-0.878c1.067,0.272,1.987,1.025,3.201,0.753
		l0.481-0.711l1.004,0.774l-0.188,0.481l-3.012,0.251l0.083,1.004h0.711l0.648-0.774l1.15,0.774c-0.062,0.23-0.167,0.46-0.251,0.753
		h-2.238c0.021,0.397,0.063,0.711,0.083,1.046h1.569c0.251-0.293,0.502-0.544,0.795-0.858l1.339,0.921
		c-0.125,0.188-0.23,0.376-0.314,0.523h-2.322c0.021,0.648,0.711,0.732,0.9,1.255c-0.544,0.732-1.548,0.544-2.259,1.025
		c0.272,0.46,0.69,0.816,1.192,1.004c1.192,0.46,2.447,0.837,3.661,1.255c0.042,0,0.063,0.042,0.209,0.125
		c-0.628,0.334-1.276,0.23-1.778,0.418c-0.481,0.272-0.899,0.523-1.339,0.795c-1.067-0.565-1.987-1.297-2.803-2.28l-3.954,3.598
		l-1.381-0.962l2.113-1.129v-2.532c-1.904,1.82-4.017,3.347-6.359,4.498L5.52,21.846c0.083-0.104,0.146-0.251,0.272-0.335
		c0.564-0.46,1.129-0.878,1.715-1.297c1.171-0.858,2.217-1.82,3.201-2.887l1.778-1.862l-0.063-0.146l-2.761,0.188l-0.439-0.962
		h3.117c0.021-0.355,0.042-0.669,0.042-0.962h-2.238c-0.125-0.251-0.209-0.481-0.355-0.774h2.51l-0.062-1.15l-2.699,0.209
		c-0.105-0.272-0.23-0.523-0.376-0.878h3.054l-0.063-0.962c-0.397-0.104-0.502,0.083-0.627,0.314
		c-0.125,0.293-0.335,0.565-0.753,0.418l-0.271-3.41c0.836,0.627,1.569,0.272,2.28,0.209l0.418-0.628
		c0.335,0.376,0.628,0.732,0.962,1.13l-0.899,0.23c0.816,0.335,0.46,0.983,0.585,1.569l-1.025,0.084L13.72,10.925z M18.553,4.44
		l1.297,0.962c-0.042,0.251-0.084,0.481-0.105,0.69C16.335,6.281,13.009,6.49,9.62,6.7C9.474,6.428,9.286,6.135,9.118,5.842h3.849
		c0.063-0.167,0.125-0.313,0.167-0.502c0.418-0.083,0.837-0.209,1.276-0.314V4.88c-0.251-0.251-0.523-0.481-0.795-0.711
		l-0.104,0.083l0.251,0.335L13.7,4.712l-0.544-0.188L13.03,3.854l-0.941-0.732l1.841-0.69l2.134,0.878
		c-0.418,0.711-1.046,1.297-0.753,2.239c0.69,0.334,1.443-0.084,2.196,0.062C17.842,5.214,18.176,4.859,18.553,4.44z M11.503,8.206
		c0.021,0.46,0.042,0.816,0.083,1.255l1.13-0.167l-0.104-1.004L11.503,8.206z M13.846,15.13c0.209,0.627-0.418,0.795-0.523,1.109
		v3.012l1.674-0.983c-0.502-0.962-0.899-1.925-0.669-3.055L13.846,15.13z M14.285,12.787l0.418-0.355
		c-0.021-0.314-0.062-0.606-0.104-0.962c-0.397,0.063-0.753,0.125-1.151,0.209c0.021,0.355,0.042,0.648,0.042,1.004
		C13.825,12.724,14.055,12.745,14.285,12.787z M14.871,14.461l-0.146-1.13l-1.109,0.105v0.962L14.871,14.461z M17.967,7.934
		c-1.088,0.083-2.176,0.125-3.368,0.167l-0.146-1.046c0.858,0.669,1.673,0.418,2.489,0.314l0.439-0.69
		c0.376,0.23,0.711,0.46,1.234,0.816C18.344,7.683,18.155,7.913,17.967,7.934z M17.862,8.352c0.105,0.46,0.188,0.836,0.272,1.318
		l-3.452,0.167c-0.021-0.46-0.042-0.858-0.083-1.318h0.941l0.146,0.669l1.088-0.062L16.9,8.394L17.862,8.352z M15.52,16.637
		c0.858-0.648,1.15-1.025,1.234-1.653c-0.669,0.042-1.339,0.104-2.113,0.146L15.52,16.637z"/>
	<path d="M21.924,7.118l7.301-0.439c0.397-0.334,0.837-0.732,1.36-1.213l1.046,1.025c-0.063,0.586-0.397,0.879-0.983,0.879
		c-2.113,0.021-4.205,0.104-6.297,0.46c-0.627,0.105-1.255,0.188-1.862,0.272C22.301,7.808,22.134,7.516,21.924,7.118z
		 M29.853,13.582c0.69-0.063,0.983,0.585,1.464,1.046l-0.585,1.36v2.113c-0.314,0.418-0.523,1.067-1.255,1.109
		c-0.481-0.209-0.355-0.67-0.418-1.067c-0.899,0.063-1.799,0.146-2.72,0.23v1.862l-0.857,0.878
		c-0.146-0.062-0.314-0.104-0.481-0.146l-0.313-5.292c-0.251-0.167-0.481-0.335-0.753-0.544l1.004-0.837
		c1.255,0.774,2.573,0.23,3.849,0.167C29.142,14.147,29.477,13.896,29.853,13.582z M30.773,9.356
		c-0.104,0.418-0.334,0.586-0.69,0.607c-1.631,0.125-3.242,0.272-4.874,0.418c-0.272,0.021-0.544,0.084-0.837,0.125l-0.376-0.815
		c0.858-0.063,1.632-0.125,2.427-0.167c0.502-0.042,1.004-0.063,1.506-0.063c0.669,0,1.234-0.251,1.715-0.732
		c0.062-0.084,0.146-0.125,0.209-0.188L30.773,9.356z M24.707,5.005L24.1,4.022c0.146-0.021,0.251-0.063,0.335-0.063
		c1.004-0.021,2.008-0.062,2.991,0c1.004,0.063,1.799-0.251,2.49-0.941C30,2.934,30.104,2.871,30.292,2.745l0.858,1.109
		l-0.481,0.607L24.707,5.005z M24.289,12.118l4.686-0.125l1.234-1.15l0.815,1.067c-0.062,0.544-0.418,0.627-0.795,0.648
		l-3.996,0.251c-0.565,0.042-1.129,0.105-1.694,0.167L24.289,12.118z M29.079,15.298l-2.741,0.146l-0.146-0.481
		c-0.126,0.188-0.188,0.397-0.167,0.586c0.042,0.418,0.125,0.837,0.188,1.276l0.063,0.69l0.418,0.167l2.385-0.355V15.298z
		 M30.899,11.218c1.548-1.883,1.611-4.079,1.402-6.338c-0.188-0.188-0.418-0.377-0.669-0.628c0.397-0.293,0.732-0.565,1.109-0.857
		l1.548,0.502c0.251-0.021,0.627-0.021,1.004-0.084c0.167-0.021,0.355-0.167,0.502-0.292c0.314-0.272,0.606-0.565,0.92-0.858
		c0.795,0.272,1.213,0.648,1.464,1.464c-0.251,0.356-0.565,0.774-0.878,1.234l-0.188,2.197c0.586-0.063,1.13-0.126,1.674-0.209
		c0.146-0.272,0.292-0.502,0.397-0.753c0.104-0.251,0.125-0.502,0.23-0.879c0.083,0.209,0.146,0.293,0.167,0.397
		c0.125,0.314,0.209,0.648,0.376,0.941c0.355,0.628,0.376,0.962,0,1.632c-0.565,0.335-1.234,0.251-1.862,0.314
		c-0.314,0.021-0.628,0-0.962,0.021c-0.858,0.062-1.402-0.397-1.402-1.234V4.9c0-0.083-0.021-0.146-0.021-0.251h-1.506
		c0,0-0.146,0.104-0.272,0.188c0,0.042-0.021,0.083-0.021,0.125c0.23,0.858-0.063,1.673-0.251,2.489
		c-0.084,0.46-0.251,0.92-0.397,1.381c-0.209,0.711-0.439,1.422-1.213,1.82c0.104,0.021,0.209,0.063,0.313,0.063
		c1.193-0.042,2.406-0.063,3.599-0.146c0.251-0.021,0.502-0.209,0.732-0.355c0.293-0.188,0.565-0.397,0.879-0.648
		c0.564,0.334,1.171,0.648,1.297,1.401c-0.042,0.125-0.063,0.23-0.125,0.293c-0.669,0.669-0.858,1.611-1.339,2.385l-1.067,1.799
		c1.778,1.464,3.891,2.175,6.066,2.698l-3.012,1.778c-1.506-0.711-2.95-1.715-4.268-2.971c-2.364,2.218-5.083,3.766-8.012,4.917
		c-0.021-0.042-0.042-0.084-0.084-0.125c0.607-0.335,1.213-0.649,1.778-1.004c0.816-0.523,1.674-0.983,2.364-1.632
		c1.025-0.92,1.967-1.924,2.741-3.075c0.125-0.167,0.188-0.502,0.083-0.669c-0.523-0.962-0.69-2.029-0.962-3.075l-0.146-0.481
		l-0.649,0.042c-0.125-0.313-0.292-0.648-0.439-1.004l-0.753,0.523L30.899,11.218z M35.062,14.189
		c0.418-1.004,0.774-1.841,1.109-2.678l-2.699,0.251L35.062,14.189z"/>
	<path d="M53.768,7.474c-0.23,0.565-0.69,0.46-1.067,0.481c-0.774,0.062-1.569,0.062-2.364,0.104
		c-0.857,0.062-1.694,0.125-2.552,0.167c-0.084,0-0.167-0.063-0.272-0.021l-3.578,0.397l-0.983-1.402h0.669
		c1.255,0.021,2.531,0.084,3.807,0.084c1.13,0,2.239-0.021,3.368-0.105c0.251,0,0.502-0.209,0.732-0.355
		c0.272-0.23,0.502-0.502,0.836-0.795C52.994,6.428,53.392,6.951,53.768,7.474z M45.546,10.758l-0.585-1.067h5.376l1.067-0.941
		c0.439,0.376,0.815,0.732,1.276,1.108l-0.46,0.397L45.546,10.758z M52.743,5.047l-6.862,0.565l-0.837-1.15h5.439l1.109-1.004
		l1.402,1.255L52.743,5.047z M51.718,11.051c0.439,0.377,1.004,0.607,1.151,1.339c-0.105,0.063-0.23,0.188-0.377,0.209l-5.418,0.418
		c-0.481,0.021-0.941,0.104-1.318,0.146c-0.272-0.439-0.439-0.753-0.669-1.151h5.522L51.718,11.051z M50.379,14.9l1.13-1.318
		l1.36,1.297l-0.397,0.816l0.146,2.385c-0.439,0.627-0.648,1.36-1.443,1.673l-0.544-0.292l-0.083-1.067l-3.096,0.251
		c0.251,1.192-0.125,2.155-0.816,3.096l-0.46-0.523c0-2.008,0.083-3.975-0.251-5.878l-0.774-0.46l0.962-0.648
		c0.314,0.083,0.607,0.167,0.899,0.23l0.502,0.606L50.379,14.9z M47.388,17.933c0.543-0.042,1.046-0.062,1.569-0.083l1.569-0.105
		v-2.217c-1.109,0.021-2.155,0.021-3.138,0.314V17.933z M62.889,10.842h-5.062c0.062,1.109,0.104,2.155,0.146,3.18
		c0.084,1.443,0.23,2.887,0.209,4.31c-0.021,1.046-0.23,2.092-1.36,2.782c-0.209-0.083-0.523-0.188-0.858-0.293V10.758
		c-0.878,0.125-1.673,0.23-2.468,0.355c-0.251-0.544-0.481-1.004-0.711-1.527l3.054,0.167c0.105-1.841,0.356-3.619-0.209-5.355
		l-1.025-0.355l1.903-1.255l1.569,0.627l0.042-0.083l0.481,0.397c0.251,0.816-0.356,1.234-0.732,1.736
		c-0.125,1.485,0.104,2.95-0.167,4.352h2.154l1.611-1.318l1.527,1.862c0.083-0.021,0.167-0.042,0.251-0.084L62.889,10.842z"/>
	<path d="M64.315,18.645c2.741-2.511,5.355-5.083,6.464-8.87l-4.331,0.962l-0.836-1.213l5.711-0.502V5.507
		c-1.59,0.021-3.054,0.439-4.561,0.606c0-0.062-0.021-0.104-0.021-0.146l6.025-2.155L72.39,3.038l1.025-0.146
		c0.251,0.251,0.481,0.502,0.732,0.732l-0.063,0.083l0.69,0.293l-0.062,0.732c-1.088,0.23-2.134,0.46-3.201,0.669v0.146l0.899,0.376
		c0.774,0.334,0.878,0.732,0.397,1.401l-0.083,0.125L72.662,8.77c-0.021,0,0.063,0.063,0.104,0.105
		c0.397-0.084,0.732-0.146,1.172-0.209l0.585-0.837l1.339,1.046v0.836l-1.527,0.063h-1.569l-0.062,1.443
		c0.774,0.335,1.527,0.648,2.301,0.941c1.359,0.502,1.255,2.05,0.439,2.824l-0.669-0.167c-0.209-1.318-0.983-2.217-1.757-3.138
		l-0.167,0.042v1.046c0,1.38-0.021,2.74-0.021,4.121c0,0.418-0.042,0.837,0.021,1.255c0.146,1.046-0.293,1.967-0.628,2.887
		c-0.146,0.418-0.544,0.648-1.046,0.586c-0.104-0.167-0.188-0.356-0.251-0.502c0.774-2.991,0.376-5.983,0.376-8.975
		C69.357,14.733,66.972,16.825,64.315,18.645z M81.197,15.339c-0.899,0.125-1.778,0.23-2.615,0.356
		c-0.063,0.69-0.063,1.36-0.146,2.008c-0.083,0.69-0.335,1.36-0.858,1.862c-0.188,0.167-0.418,0.23-0.69,0.376
		c-0.125-0.272-0.209-0.439-0.271-0.606c0.523-1.402,0.376-2.845,0.355-4.289c-0.021-0.628-0.042-1.276-0.084-1.904
		c-0.083-1.841-0.188-3.682-0.292-5.502l-0.879-0.335c-0.021-0.042-0.021-0.104-0.021-0.146l1.234-0.67l2.05,0.837l1.966-0.125
		l0.837-0.962c0.857,0.209,1.339,0.837,1.925,1.444l-0.167,0.753l0.188,0.355H83.08c0,1.172,0,2.343,0.021,3.515
		c0,0.711,0.146,1.402,0.125,2.092c-0.021,0.795-0.251,1.548-0.857,2.113c-0.23,0.209-0.356,0.627-0.879,0.481
		C81.114,16.553,81.323,15.925,81.197,15.339z M78.185,8.645l0.313,6.067l2.678-0.167c0.167-2.155-0.083-4.184-0.125-6.317
		L78.185,8.645z"/>
	<path d="M90.908,6.574c0.607,0.418,1.255,0.774,1.757,1.318l-1.715,2.134l-1.569,1.862c-0.92,1.13-2.008,2.092-3.138,2.992
		l-2.113,1.757c-0.042-0.021-0.084-0.063-0.146-0.084c0.062-0.104,0.083-0.209,0.146-0.292l1.841-1.799
		c0.376-0.418,0.753-0.837,1.088-1.276c0.669-0.878,1.339-1.736,1.966-2.657c0.314-0.481,0.523-1.046,0.774-1.59L90.908,6.574z
		 M90.699,4.712c-1.464,1.611-2.929,3.075-4.749,4.163c1.381-1.632,2.741-3.243,3.243-5.46C89.715,3.875,90.196,4.294,90.699,4.712z
		 M88.732,20.988c0-1.15,0.021-2.196,0-3.263c-0.042-1.339-0.125-2.678-0.167-4.017c-0.021-0.293-0.293-0.628,0.146-0.879
		l1.548,0.648h1.966l0.962-0.899c0.293,0.335,0.648,0.69,1.067,1.13c0.021,0.083,0.042,0.251,0.042,0.46l-0.376,0.481l0.188,3.598
		c-0.941,0.021-1.778,0.397-2.573,0.125c-0.46,0.125-0.857,0.23-1.318,0.334c-0.042,0.293-0.397,0.607,0.042,1.004
		c-0.251,0.565-0.481,1.129-0.774,1.736L88.732,20.988z M89.945,14.314c0.063,1.109,0.125,2.155,0.167,3.305l2.197-0.104
		l-0.126-3.452L89.945,14.314z M102.728,20.214c-0.606-0.188-0.963-0.586-1.401-0.899c-0.879-0.607-1.423-1.443-1.883-2.364
		c-0.272-0.544-0.439-1.15-0.544-1.757c-0.21-1.276-0.335-2.552-0.523-3.871l-0.084,0.293c-0.209,1.443-0.502,2.887-1.129,4.205
		c-0.461,0.941-1.046,1.862-1.758,2.636c-1.213,1.381-2.636,2.531-4.163,3.515c-0.084,0.042-0.146,0.083-0.23,0.104
		c-0.021,0-0.062-0.042-0.146-0.083l0.314-0.272c1.318-0.879,2.364-2.05,3.264-3.326c0.544-0.816,0.878-1.778,1.15-2.741
		c0.586-2.05,1.067-4.142,1.192-6.297c0-0.083-0.021-0.188-0.062-0.376c-0.188,0.062-0.355,0.062-0.46,0.167
		c-0.481,0.502-0.942,1.025-1.402,1.548l0.648,0.627c0.251,0.711-0.021,1.213-0.292,1.716c-0.711,0.146-1.025-0.021-1.402-0.711
		c-0.481-0.837-0.899-1.694-1.673-2.322C92.1,9.984,92.1,9.9,92.058,9.775c0.9,0.167,1.716,0.439,2.49,0.899
		c1.443-2.134,2.405-4.435,2.803-6.966l-0.502-0.983l1.716-0.272c0.544,0.397,1.464,0.397,1.423,1.255l-2.866,4.331
		C97.644,7.996,98,7.934,98.355,7.934c0.334,0,0.69-0.356,0.962,0.062c0.188-0.083,0.377-0.293,0.523-0.272
		c0.753,0.167,1.171-0.376,1.694-0.711c0.146-0.105,0.271-0.23,0.439-0.377l2.112,2.301l-0.062,0.711
		c-1.255,0.397-2.489,0.816-3.786,1.234l0.564-2.176c-0.084-0.083-0.167-0.188-0.209-0.188c-0.67,0.105-1.36,0.209-2.176,0.356
		l0.711,0.606c-0.083,0.23-0.188,0.481-0.271,0.753h-0.126l0.251,2.426c0.021,0.167,0.063,0.314,0.126,0.46
		c0.606,1.318,1.317,2.552,2.615,3.347c0.92,0.586,1.841,1.171,2.803,1.715c0.251,0.146,0.565,0.167,0.857,0.209
		c0.314,0.042,0.544,0.146,0.523,0.627C104.757,19.251,103.564,19.314,102.728,20.214z M92.247,3.687
		c0.816,0.377,1.632,0.711,2.406,1.172c0.376,0.23,0.795,0.606,0.648,1.192c-0.125,0.523-0.251,1.046-0.899,1.213l-0.607-0.272
		c-0.439-1.151-0.711-2.427-1.924-3.285C92.1,3.687,92.184,3.645,92.247,3.687z"/>
	<path d="M107.04,20.339l7.51-0.439c0.356-0.878,0.063-1.799,0.188-2.782l-5.251,0.774l-0.627-1.213l5.899-0.125V13.98
		c-0.921,0.083-1.904,0.125-2.866,0.272c-0.963,0.146-1.925,0.292-2.887,0.334l-0.042-0.209c0.104-0.063,0.188-0.188,0.293-0.209
		c1.088-0.062,2.134-0.293,3.18-0.523c1.171-0.251,2.343-0.481,3.473-0.69c0.711-1.046,0.899-2.176,0.983-3.305
		c0.083-1.36,0.104-2.72,0.104-4.08c0-0.251-0.23-0.523-0.377-0.774c-0.084-0.146-0.251-0.23-0.397-0.334
		c1.088-0.753,1.694-0.711,2.782,0.167c0.293-0.021,0.586-0.062,0.879-0.062s0.564,0.042,0.941,0.062l1.276-1.067
		c0.606,0.23,1.004,0.774,1.506,1.381l-0.564,0.837c-0.042,0-0.063-0.021-0.104-0.021c-0.084,1.736-0.126,3.473-0.293,5.209
		c-0.104,1.109-0.69,2.029-1.569,2.741c-0.167,0.125-0.418,0.167-0.606,0.251c-0.23-0.669-0.439-1.255-0.648-1.904l0.92,0.104
		c0.397-1.422,0.397-2.908,0.439-4.414h-2.866l-0.167,1.82c0.774-0.105,1.59,0.23,2.134-0.628c0.439,0.251,0.502,0.544,0.23,0.962
		c-0.795,0.293-1.653,0.104-2.553,0.209c0.042,1.004-0.648,1.716-1.297,2.469l0.084,0.104c0.669-0.209,1.339-0.397,1.987-0.606
		l1.108,0.983l-0.209,0.439l-3.159,0.356c0,0.021-0.021,0.062-0.021,0.104l0.753,0.418c0.062,0.481-0.335,0.585-0.586,0.774v1.192
		c0.816,0,1.569,0.042,2.302,0c0.502-0.042,0.815-0.418,1.087-0.795c0.146-0.188,0.335-0.355,0.544-0.586l1.716,1.527
		c-0.167,0.23-0.293,0.439-0.418,0.627h-5.168V19.9l1.234-0.083c0.419-0.021,0.858,0,1.297-0.042h1.632l1.36-1.192
		c0.962,0.397,1.61,1.255,2.489,1.967l-0.502,0.711c-0.899-0.188-1.778-0.355-2.657-0.523c0-0.021,0-0.021,0.021-0.042
		c-0.23,0-0.439-0.021-0.648-0.021c-0.712-0.021-1.423-0.063-2.134-0.063c-0.586,0-1.172,0.021-1.736,0.042
		c-0.774,0.021-1.549,0.021-2.322,0.083c-0.816,0.042-1.632,0.104-2.448,0.23c-1.15,0.188-2.301,0.439-3.451,0.649
		c-0.335,0.062-0.69,0.104-0.963,0.146C107.562,21.239,107.333,20.82,107.04,20.339z M110.22,10.465l1.088,0.062
		c0.355,0,0.711-0.062,1.066,0c0.9,0.167,1.485-0.251,1.988-0.941c0.021-0.042,0.083-0.083,0.167-0.167
		c0.271,0.251,0.564,0.481,0.879,0.753c-0.168,0.314-0.272,0.586-0.356,0.753l-4.937,0.356c-0.188,0.69-0.355,1.38-1.214,1.652
		c-0.062-0.313-0.188-0.544-0.167-0.753c0.126-1.15,0.293-2.301,0.419-3.452c0.041-0.565,0-1.151,0-1.757l-0.983-0.586V6.26
		l1.548-0.397l1.004,0.565l-0.502,0.899V10.465z M111.768,6.742l0.188-2.783l-0.857-0.69c0-0.042,0-0.084,0.021-0.146l2.029-0.335
		c0.419,0.209,0.753,0.376,1.15,0.607c-0.188,0.544-0.439,1.088-0.564,1.652c-0.126,0.586-0.126,1.172-0.167,1.757l0.125,0.104
		l1.778-1.171l0.795,0.837l-0.104,0.627c-1.883,0.104-3.703,0.209-5.544,0.293c-0.062,0-0.125-0.063-0.251-0.125
		c0.188-0.23,0.335-0.418,0.481-0.627H111.768z M121.077,6.972l0.167-0.063l0.126-1.631h-2.929
		c-0.042,0.648-0.062,1.234-0.084,1.841l1.36,0.125c0.209-0.272,0.438-0.523,0.669-0.795C120.659,6.637,120.868,6.804,121.077,6.972
		z"/>
	<path d="M128.089,19.293c0.021-0.188-0.021-0.502,0.105-0.69c0.711-1.109,1.213-2.301,1.422-3.703
		c0.753,0.836,0.899,1.757,0.69,2.719c-0.188,0.941-0.648,1.736-1.59,2.155C128.508,19.628,128.34,19.481,128.089,19.293z
		 M128.905,14.231c-0.126-0.167-0.293-0.376-0.481-0.648l0.084-0.732c0.648,0.063,0.962-0.418,1.339-0.795
		c0.606-0.627,1.192-1.276,1.799-1.925c0.084-0.083,0.126-0.188,0.188-0.272c-0.313-0.732-0.816-0.732-2.238-1.422l-0.272-0.648
		c1.234-1.234,2.302-2.49,3.055-4.038c-0.084-0.125-0.146-0.293-0.23-0.439c0.899-0.397,1.318-0.272,1.736,0.523
		c0.063,0.105,0.23,0.146,0.293,0.272c0.146,0.272,0.377,0.586,0.377,0.879c0,0.334-0.355,0.481-0.712,0.502
		c-0.46,0.021-0.773,0.335-1.066,0.606l-1.945,1.778c0.48,0.188,0.857,0.356,1.255,0.523l0.313,0.565
		c0.754-0.251,0.712-1.192,1.297-1.464l-0.46-0.983c0.502-0.062,0.921-0.104,1.443-0.146c0.397,0.607,1.172,1.088,1.214,2.113
		c-0.335,0.083-0.648,0.146-1.025,0.209c-1.276,1.339-2.824,2.469-4.101,3.975c1.067,0.188,2.113,0.209,3.222,0.084l-0.773-2.134
		c0.376,0.021,0.544,0.272,0.669,0.565c0.67,0.021,1.088,0.397,1.318,1.004c0.146,0.439,0.23,1.088-0.502,1.841
		c-0.063-0.021-0.168-0.021-0.251-0.062c-0.104-0.021-0.188-0.063-0.293-0.125l-0.168-0.586l-0.522-0.083l-0.355,0.69v4.435
		c0,0.628,0.042,1.276,0.021,1.904c-0.021,0.648-0.355,1.13-0.962,1.527l-0.586-0.481c0.502-2.636,0.084-5.104,0.021-7.656
		L128.905,14.231z M134.365,16.867c-0.146-0.627-0.481-1.213-0.711-1.841l-0.042-0.251c0.753-0.042,1.024,0.774,1.652,0.816
		c0.628,1.15,0.69,1.757,0.042,2.28C134.825,17.703,134.512,17.432,134.365,16.867z M144.47,15.486c0,1.276-0.146,2.594,0.899,3.64
		c0.021,0.146,0.062,0.355,0.104,0.502c-0.251,0.69-0.795,0.983-1.401,1.046c-1.339,0.125-2.678,0.209-4.017,0.23
		c-0.816,0.021-1.402-0.544-1.527-1.339c-0.062-0.397-0.084-0.795-0.104-1.192l-0.146-3.891c-0.377,0.042-0.753,0.104-1.15,0.167
		c-0.293,0.627,0.167,1.569-0.732,2.008c-0.397-0.188-0.523-0.481-0.523-0.879c0-1.339,0-2.699-0.041-4.038
		c0-0.564-0.084-1.108-0.565-1.59c0.377-0.23,0.711-0.418,1.025-0.627c0.251,0.062,0.46,0.104,0.711,0.146
		c0.084,0.146,0.188,0.272,0.313,0.439c-0.104,0.167-0.188,0.314-0.313,0.46c0,1.109-0.084,2.238,0.084,3.431
		c0.397-0.042,0.69-0.083,1.066-0.104c0.293-1.276-0.083-2.531,0.104-3.807c0.105,0,0.23,0.021,0.461,0.042
		c-0.23-0.188-0.377-0.292-0.565-0.46l-0.062-1.234c-0.879,0.376-1.716,0.586-2.615,0.627c0.921-0.648,1.904-1.088,2.866-1.443
		l-0.355-0.92c0.313-0.962,0.167-1.904,0.042-2.845c-0.168-0.062-0.313-0.146-0.606-0.251l1.275-0.774l2.051,0.732
		c-0.314,0.397-0.628,0.628-0.774,0.962c-0.146,0.356-0.23,0.774-0.209,1.151c0.021,0.334-0.335,0.732,0.125,1.067l1.8-1.025
		L141.269,4.9c0.481-0.334,0.983-0.021,1.507-0.083c0.355,0.774,0.899,1.464,1.088,2.427l-4.122,0.816
		c-0.188,1.883-0.167,3.745-0.104,5.69l1.256,0.084c-0.063-1.36-0.126-2.699-0.168-3.996l-0.627-0.586
		c0.711-0.272,1.317-0.837,2.05-0.439c0.439,0.209,1.088,0.146,1.276,0.837l-0.712,0.648v2.176c0.021,0.669,0.104,1.36,0.063,2.029
		c-0.063,0.711-0.481,1.297-1.025,1.82l-0.586-0.23c-0.104-0.544-0.23-1.067-0.355-1.632l-1.025,0.062
		c-0.167,0.732-0.083,1.444,0,2.176c0.084,0.711,0.042,1.423,0.063,2.197c1.506,0.021,2.865-0.146,4.037-1.171
		c0.084-0.335,0.209-0.711,0.271-1.109c0.063-0.376,0.063-0.753,0.084-1.13H144.47z"/>
	<path d="M157.548,10.528l-2.846,0.669v1.464l0.146,7.092c0.021,1.004-0.628,1.757-1.61,1.799c-0.021-0.209-0.146-0.46-0.104-0.669
		c0.313-1.611,0.167-3.222,0.229-4.854l0.062-1.799c0-0.167-0.041-0.335-0.083-0.648c-1.527,2.217-3.326,3.975-5.564,5.334
		l-0.21-0.209c0.021-0.062,0.021-0.125,0.042-0.146c1.297-0.836,2.196-2.029,3.033-3.284c0.523-0.795,1.046-1.611,1.59-2.406
		c0.188-0.272,0.084-0.774,0.712-0.774c-0.419-0.397,0.042-0.628,0.083-1.004c-0.689,0.125-1.339,0.209-2.008,0.335l-1.903,0.397
		l-0.272-1.025l4.037-0.418c0.397-0.376,0.397-0.836,0.419-1.255v-4.08c0.042-0.042,0.084-0.062,0.146-0.083
		c-0.272-0.209-0.544-0.418-0.899-0.669c0.46-0.397,0.857-0.732,1.213-1.067l1.59,0.523c0.104,0.042,0.146,0.188,0.23,0.293
		l-0.628,1.234c-0.083,1.087-0.418,2.175-0.188,3.263l0.188,0.063l1.109-1.695c-0.063-0.272-0.126-0.502-0.21-0.753l1.172-0.586
		l0.921,0.837c-0.168,0.335-0.272,0.669-0.481,0.899c-0.46,0.481-0.983,0.941-1.485,1.381c-0.251,0.209-0.523,0.355-0.816,0.502
		c-0.376,0.209-0.48,0.377-0.48,0.941c1.046,0.23,1.464-0.711,2.217-1.213C157.15,9.503,158.133,9.754,157.548,10.528z
		 M152.15,6.742c0.293-0.23,0.502-0.418,0.795-0.628c0.042,0.188,0.083,0.272,0.062,0.335c-0.23,0.711-0.418,1.443-0.69,2.155
		c-0.188,0.502-0.502,0.92-1.192,1.004c-0.062-1.108-0.125-2.176-0.209-3.326L152.15,6.742z M162.275,13.896
		c0.92-0.062,1.82-0.042,2.678-0.23c0.439-0.104,0.815-0.565,1.213-0.879c0.188-0.146,0.335-0.313,0.523-0.502l1.108,1.192
		c0,0.125,0.021,0.314,0.042,0.544c-0.628,0.314-1.297,0.314-1.945,0.376l-3.117,0.314c-0.104,0-0.209,0.063-0.251,0.083
		c0.084,1.485,0.188,2.908,0.271,4.226c-0.313,0.816-0.544,1.548-1.339,1.987l-0.648-0.062v-6.109l-3.2,0.565l-0.565-0.837
		l-0.773,0.335c-0.272-1.088-0.544-2.092-0.857-3.243c0.502,0.314,0.982,0.586,1.401,0.899c0.522,0.397,0.293,1.046,0.46,1.548
		c0.816,0.251,2.824,0.042,3.326-0.356v-1.673c0.69-0.084,1.36,0.083,1.987,0.334C162.84,12.996,162.422,13.394,162.275,13.896z
		 M160.602,12.055l-0.418,0.376l-0.377-1.694c-0.188,0.125-0.335,0.209-0.46,0.313c-0.439,0.439-0.879,0.9-1.339,1.318
		c-0.084,0.104-0.272,0.083-0.481,0.146l1.694-3.452l-0.439-0.899c0.774-0.606,1.632-0.418,2.176,0.502l-0.711,1.318
		c0.377,0.502,1.172,0.607,1.066,1.402l-0.711,0.69V12.055z M162.944,6.972c-0.251,0.125-0.438,0.293-0.648,0.314l-3.431,0.23
		l-0.335-1.067h2.406V4.419l-0.941-0.586c0.544-0.292,1.004-0.564,1.527-0.857c0.376,0.104,0.795,0.209,1.192,0.376
		c0.335,0.146,0.439,0.523,0.271,0.878c-0.062,0.146-0.188,0.293-0.293,0.439c0.314,0.46-0.146,1.109,0.502,1.59
		c0.272,0,0.67,0.042,1.067-0.021c0.188-0.042,0.377-0.23,0.544-0.397c0.209-0.23,0.397-0.481,0.628-0.732
		c0.773,0.334,1.275,0.857,1.59,1.715c-0.23,0.104-0.439,0.293-0.648,0.314c-0.67,0.062-1.36,0.062-2.029,0.083
		c-0.377,0-0.754-0.042-1.192-0.062C163.112,7.118,163.008,7.014,162.944,6.972z M160.602,12.076h-0.021H160.602z M162.149,11.972
		c0.168-0.607,0.565-1.067,0.837-1.611c0.293-0.544,0.502-1.151,0.753-1.778l-0.251-0.669c0.419-0.125,0.816-0.23,1.192-0.355
		l0.795,0.669c-0.334,0.543-0.648,1.108-1.024,1.715c0.586,0.355,1.171,0.69,1.715,1.004c0.23,0.858-0.167,1.506-1.024,1.736
		c-0.419-0.313-0.272-0.837-0.397-1.255c-0.146-0.439-0.293-0.879-0.461-1.444C163.761,10.988,162.944,11.469,162.149,11.972z"/>
	<path d="M179.789,19.774c0.084-0.439,0.084-0.878,0.084-1.318c0.021-1.422,0.042-2.845,0.021-4.268
		c0-0.816-0.062-1.632-0.083-2.448c-0.021-0.146-0.084-0.293-0.126-0.502l-2.092,0.125v1.422l0.062,5.042
		c0.021,0.544,0,1.088,0.021,1.611c0.041,0.732-0.439,1.088-0.941,1.569c-0.293-0.418-0.565-0.774-0.565-1.255l-0.062-4.56
		l-0.084-3.808h-2.05c-0.23,0.104-0.293,0.334-0.272,0.648c0.021,1.234,0,2.469,0,3.703c0,0.711,0.021,1.402,0.021,2.113
		c0.021,0.544,0.042,1.108,0.021,1.652c-0.042,0.711-0.439,1.841-1.485,2.176l-0.418-0.837h0.084
		c0.104-1.694,0.229-3.389,0.271-5.083c0.021-1.276-0.084-2.531-0.084-3.786c0-0.607-0.418-0.983-0.711-1.423l-0.251-0.272
		l1.108-0.481c0.607,0.23,1.13,0.544,1.674,0.606c0.879,0.104,1.778,0.042,2.615,0.042c0.606-0.962,1.422-4.184,1.317-5.104
		c-2.259,0.021-4.456,0.544-6.694,0.711l-0.941-1.443l13.242-0.356l1.842-1.401l0.585,0.711l0.69,0.816
		c0.586,0.669,0.606,0.879,0.063,1.695c-2.427-0.921-4.958-0.921-7.511-0.753l-0.042,0.146l1.401,0.523
		c0.252,0.356,0.042,0.669-0.125,0.983l-1.841,3.222c0.209,0.062,0.397,0.188,0.586,0.188c1.192-0.021,2.363-0.083,3.535-0.125
		c0.335,0,0.648,0.042,0.983,0.042l0.899-1.004c0.522,0.313,1.025,0.585,1.506,0.92c0.544,0.355,0.586,0.836,0.23,1.38
		c-0.146,0.209-0.23,0.502-0.23,0.774c-0.021,1.108,0.021,2.238,0.042,3.347c0.021,1.067,0.062,2.134,0.021,3.201
		c-0.042,0.983-0.523,1.799-1.423,2.28c-0.251,0.146-0.523,0.272-0.816,0.376c-0.313,0.125-0.585,0.042-0.815-0.251
		c0-0.648-0.042-1.339-0.983-1.485c0.481-0.648,1.276-0.021,1.716-0.879c0.376-2.406,0.125-5.021-0.021-7.719h-2.405
		c-0.021,0.104-0.062,0.272-0.062,0.439c0.062,2.008,0.167,3.996,0.188,6.004c0,0.732,0.126,1.485-0.229,2.196
		c-0.251,0.481-0.628,0.795-1.109,1.088C179.873,20.59,179.685,20.235,179.789,19.774z"/>
	<path d="M2.089,47.121c2.448-1.15,4.749-2.51,6.715-4.519c0.418,0.502,0.795,0.941,1.255,1.443L8.867,44.59l-2.343,1.025
		l-3.933,1.632c-0.146,0.042-0.293,0.042-0.439,0.062L2.089,47.121z M15.541,41.473l-0.23-1.317H9.913l-0.125,0.857l-0.669,0.335
		L8.721,41.18c-0.042-0.062-0.063-0.104-0.063-0.125c0.063-2.155,0.125-4.289,0.146-6.423c0-0.271-0.167-0.564-0.314-0.815
		c-0.083-0.167-0.23-0.313-0.397-0.523l1.255-0.125c1.987,0.313,3.975,0.104,6.108,0.146c0.293-0.251,0.607-0.565,1.025-0.963
		c0.313,0.168,0.795,0.397,1.255,0.69c0.167,0.084,0.23,0.335,0.335,0.502l-0.565,0.879c-0.083,1.59-0.125,3.159-0.272,4.707
		c-0.042,0.586-0.376,1.13-0.585,1.694c-0.084,0.168-0.209,0.335-0.356,0.565h1.192l1.255-1.443l1.673,1.841l-0.439,0.837
		c-2.49-0.188-4.791-0.481-7.113-0.503c-2.28,0-4.582,0.252-6.883,0.377c-0.125,0.67-0.481,1.088-1.004,1.465l-0.523-0.523
		c0.313-2.866,0.418-5.753,0.188-8.724c-0.313-0.251-0.669-0.586-1.088-0.92c1.192-0.586,2.008,0.021,2.741,0.522
		c-0.083,0.732-0.188,1.381-0.209,2.029c-0.083,1.548-0.104,3.096-0.146,4.623c-0.021,0.168,0,0.335,0,0.586
		c0.209,0.042,0.418,0.126,0.627,0.126c1.757-0.042,3.535-0.084,5.292-0.146l2.887-0.063H15.541z M4.704,28.147l1.276-0.209
		l1.527,1.025l-0.251,0.544c0.585,0.209,1.129,0,1.673-0.062c1.632-0.209,3.243-0.481,4.875-0.606
		c0.941-0.063,1.443-0.586,1.945-1.235l0.167-0.251c0.481,0.46,0.941,0.858,1.381,1.318c0.209,0.23,0.188,0.523-0.104,0.795
		c-0.126,0-0.272,0.021-0.439,0.021l-1.967,0.062c-1.318,0.042-2.636,0.188-3.933,0.377c-1.109,0.167-2.238,0.146-3.368,0.188
		l-0.335,0.042l-0.209,1.004c3.201,0.272,6.297-0.104,9.498-0.125c0.439-0.377,0.92-0.816,1.443-1.297l1.402,1.568
		c-0.104,0.251-0.188,0.439-0.293,0.732c-4.561-0.628-9.1-0.502-13.661,0.104c-0.586-1.046,0.146-2.029-0.021-3.2L4.704,28.147z
		 M14.599,35.469c-0.104,0.461-0.418,0.419-0.669,0.419c-0.816,0.021-1.611,0-2.406,0.042c-0.523,0.021-1.025,0.083-1.548,0.146
		v1.568l4.645-0.335l-0.063,0.732L9.934,38.23v1.297c1.82,0.188,3.598-0.042,5.502-0.021c0.104-1.946,0.23-3.85,0.355-5.774
		l-5.816,0.293v1.443H14.599z M19.034,44.82c0.439,1.046-0.188,2.343-1.297,2.594c-1.652-1.925-3.745-3.347-5.878-4.77
		C14.285,43.314,16.754,43.837,19.034,44.82z"/>
	<path d="M41.192,34.214c-1.423-0.355-2.887-0.397-4.394-0.335l-0.439,1.256l0.481-0.314l0.418,0.461
		c-0.293,0.355-0.627,0.397-0.962,0.376c-0.983-0.042-1.966-0.125-2.929-0.125c-0.648,0-1.297,0.104-1.946,0.146
		c-0.711,0.041-1.443,0.083-2.175,0.146c-0.293,0.021-0.586,0.126-0.941,0.21l-0.251-0.21l-0.084,0.063l0.272,0.418
		c-0.042,0.062-0.104,0.126-0.167,0.146c-0.335,0.042-0.481-0.104-0.418-0.46h-0.418c0.083-0.606,0.188-1.192,0.293-1.841
		l-1.674,0.146l-2.155,0.522c-0.251-0.439-0.523-0.857-0.816-1.339c0.418-0.251,0.837-0.062,1.234-0.083h3.054
		c0.125,0,0.251-0.105,0.439-0.188l0.272-2.385l1.276,0.795c-0.104,0.188-0.167,0.355-0.251,0.544
		c0.063,0.041,0.146,0.125,0.251,0.188L29.1,33.335c0.774-0.062,1.506-0.125,2.259-0.167l0.188-1.15l0.418,0.125
		c0-0.062,0.021-0.125,0.021-0.167c-0.209-0.313-0.523,0.021-0.774-0.021c-0.314-0.041-0.627,0-0.962,0l-0.774,0.356v-0.712h5.753
		l0.586-0.732c0.544,0.146,1.171,0.67,1.401,1.13l-0.648,0.461c0.083,0.209,0.146,0.418,0.209,0.606l0.795,0.125
		c0.732-0.313,1.736,0.21,2.259-0.731c0.816,0.062,1.213,0.627,1.611,1.192L41.192,34.214z M37.698,47.414
		c-0.356-1.004-1.067-1.652-1.757-2.301c-0.669-0.628-1.402-1.234-2.134-1.883c0.313-0.251,0.606,0.104,0.899,0.125
		c0.314,0.021,0.606,0.168,0.983,0.272c0.104-0.377,0.167-0.712,0.272-1.109c-2.029,0.084-3.954,0.188-6.004,0.293l0.544,1.549
		c-2.322,1.401-4.707,2.636-7.28,3.409l-0.125-0.188c0.083-0.084,0.146-0.21,0.251-0.252c1.736-0.689,3.18-1.841,4.644-2.949
		c0.481-0.377,0.879-0.857,1.339-1.318c-0.46-0.209-0.46-0.209-0.837-0.041c-0.523,0.502-0.899,0.899-1.297,1.317l-0.439-0.271
		c0.209-0.523,0.293-5.377,0.125-6.862l-0.732-0.397c0.565-0.313,1.025-0.439,1.569-0.146c0.209,0.126,0.502,0.168,0.732,0.188
		c0.962,0.021,1.924,0.021,2.866,0c1.59-0.042,3.18-0.125,4.582-0.167l1.004-0.983c0.627,0.439,1.339,0.648,1.506,1.464l-0.502,0.67
		c0.021,0.586,0.063,1.066,0.063,1.527c0,0.899-0.021,1.799-0.042,2.698c0,0.606-0.146,0.963-0.586,1.527
		c-0.209,0.084-0.418,0.167-0.627,0.271v0.146c0.188,0.063,0.376,0.146,0.565,0.188c0.585,0.168,1.15,0.314,1.59,0.795
		c0.46,0.523,0.523,0.963,0.125,1.507l-0.711,0.836L37.698,47.414z M33.284,28.356l0.083,0.732l-0.251,0.773l0.104,0.063
		c0.544-0.503,1.213-0.293,1.841-0.314l3.18-0.104c0.188,0,0.376-0.084,0.606-0.146l1.046,0.293l1.13,0.921l0.062,0.962
		l-0.816,0.084c0,0-0.021-0.021-0.021-0.042l-2.427,0.481c0.439-0.586,0.732-1.193,0.857-1.988c-0.606,0-1.129-0.021-1.652,0
		c-0.774,0.042-1.548,0.105-2.322,0.126c-0.941,0.021-1.883,0-2.845,0.021c-0.188,0-0.376,0.105-0.544,0.105
		c-0.836,0.041-1.673,0.062-2.489,0.083c-0.167,0-0.314,0.042-0.481,0.062c-0.23,0.042-0.481,0.168-0.69,0.126
		c-0.565-0.084-1.067,0.042-1.527,0.355c-0.209,1.214-0.941,1.925-2.155,2.26l-0.439-0.712c0.879-0.962,1.569-2.029,1.82-3.473
		l1.234,1.088c0.606-0.042,1.401-0.125,2.175-0.188c0.628-0.063,1.234-0.126,1.862-0.146c0.167,0,0.335,0.104,0.586,0.188v-2.175
		c-0.146-0.083-0.293-0.146-0.523-0.293l1.255-0.523c1.485,0.293,1.924,0.565,1.883,1.213L33.284,28.356z M35.25,38.754l-7.029,0.48
		l0.063,1.088l6.883-0.522c-0.063,0.313-0.084,0.544-0.126,0.711c-2.259,0.271-4.519,0.084-6.736,0.502l-0.063,1.046
		c2.615-0.084,5.167-0.167,7.824-0.271c0.125-1.549,0.042-3.117-0.021-4.624l-5.313,0.188c0.021,0-0.042-0.062-0.021-0.042
		l-2.469,0.314l0.063,1.13l6.715-0.628L35.25,38.754z M31.38,33.983h-2.385v1.005h2.217L31.38,33.983z M32.887,32.017l0.397,0.837
		l-0.46-0.084c0.021,0.125,0.021,0.251,0.021,0.376c-0.209,0.084-0.397,0.126-0.586,0.188c0.125,0.126,0.209,0.126,0.293,0.126
		c0.502-0.084,1.004-0.188,1.485-0.251c0.188-0.042,0.355-0.042,0.523-0.021c0.397,0.021,0.648-0.188,0.69-0.585
		c0-0.21-0.021-0.398-0.042-0.586H32.887z M35.125,33.816h-2.49v1.046c0.669,0.397,1.485-0.062,2.218,0.313L35.125,33.816z"/>
	<path d="M47.22,37.08l-3.306,0.355l-0.732-0.983c1.381-0.104,2.678,0.062,4.038-0.146c-0.021-1.903-0.021-3.744-0.104-5.585
		c-0.021-0.356-0.377-0.712-0.628-1.172c0.104-0.419,0.669-0.523,1.109-0.899c0.502,0.209,1.025,0.418,1.485,0.627
		c0.209,0.649-0.084,1.067-0.439,1.507c-0.042,1.82-0.083,3.661-0.146,5.564c0.23-0.021,0.439-0.062,0.732-0.084
		c0.23-0.251,0.502-0.522,0.837-0.837c0.313,0.419,0.815,0.712,1.046,1.298l-0.481,0.313h-2.092V43
		c0.774-0.125,1.506-0.606,2.343-0.564c0.042,0.042,0.063,0.104,0.084,0.167c-1.987,1.13-3.975,2.28-6.025,3.473
		c-0.648-0.397-0.732-1.339-1.464-1.736c0-0.042,0.021-0.084,0.042-0.125c1.151-0.272,2.322-0.544,3.578-0.858L47.22,37.08z
		 M51.906,43.921l-0.084-3.661l-0.083-0.523l-1.402,1.256l-1.297-1.297l2.762-1.716c0-1.046,0.021-2.009-0.021-2.991
		c-0.021-0.586-0.021-1.192-0.9-1.402l0.921-1.046c0.418,0.104,0.774,0.188,1.129,0.293l0.586,0.795
		c-0.146,0.355-0.293,0.67-0.502,1.13v2.385l1.904-1.276c-0.125-1.819-0.251-3.661-0.334-5.522
		c-0.021-0.586-0.251-1.025-0.795-1.423l0.983-0.962c0.795,0.335,1.862,0.083,2.197,1.234l-0.606,1.004v4.247
		c1.443-0.586,1.715-1.946,2.343-3.181l1.569,0.858c0.314,0.711-0.167,1.171-0.544,1.632c0,0.46-0.021,0.899,0,1.339
		c0.042,1.632,0.167,3.242,0.125,4.874c-0.042,1.401-0.439,2.008-1.443,2.594l-1.485-1.568l0.858-0.397
		c0.042,0.042,0.083,0.062,0.146,0.083c0.083-0.439,0.23-0.878,0.23-1.317c-0.042-1.569-0.125-3.159-0.188-4.729
		c0-0.062-0.062-0.146-0.104-0.251l-1.527,1.443c0.042,1.967,0.104,4.017,0.167,6.046c0.021,0.921-0.188,1.736-0.983,2.385
		c-0.209-0.209-0.418-0.376-0.607-0.564v-6.799c-0.69,0.628-1.234,1.15-1.862,1.736c0,0.774-0.021,1.59,0,2.406
		c0,0.857,0.021,1.736,0.104,2.572c0.042,0.419,0.23,0.837,0.356,1.234c1.339,0.063,2.594,0.314,3.849-0.021
		c0.941-0.251,1.904-0.481,2.803-0.837c0.878-0.355,1.339-1.13,1.59-2.009l0.314-1.255h0.125c0,0.69-0.104,1.381,0.042,2.029
		c0.125,0.67,0.481,1.297,0.753,1.967c-0.083,0.627-0.544,1.024-1.088,1.297c-0.46,0.23-0.962,0.418-1.485,0.502
		c-1.673,0.272-3.347,0.335-5.062,0.188c-1.067-0.084-2.029-0.419-2.824-0.837C51.948,45.238,51.906,44.59,51.906,43.921z"/>
	<path d="M70.256,27.959c0.481,0.669,1.255,0.983,1.527,1.841l-0.69,1.339c-0.021,0.732-0.084,1.652-0.125,2.657l1.046,0.083
		l0.962-0.857c0.753,0.711,0.795,0.774,0.816,1.464c-0.9,0.084-1.82,0.146-2.72,0.21c-0.209,0.837-0.104,1.15,0.544,1.59
		l2.071,1.464l0.063,1.318l-0.753,0.941l-0.607-0.439c-0.481-2.26-0.523-2.636-1.318-3.348c-0.042,0.419-0.125,0.774-0.104,1.151
		c0.104,1.506,0.272,3.033,0.334,4.561c0.063,1.088,0.021,2.196-0.083,3.284c-0.042,0.418-0.335,0.857-0.628,1.213
		c-0.23,0.314-0.543,0.21-0.753-0.021c0.293-3.117-0.042-6.172,0.084-9.226L69.796,37.1c-0.125,0.104-0.313,0.146-0.376,0.272
		c-0.711,1.275-1.736,2.301-2.657,3.389c-0.669,0.774-1.443,1.443-2.301,2.009c-0.083,0.041-0.188,0.041-0.272,0.062
		c-0.042-0.021-0.062-0.062-0.104-0.104c0.146-0.146,0.272-0.335,0.418-0.481c0.586-0.564,1.213-1.088,1.799-1.674
		c0.251-0.251,0.481-0.564,0.669-0.878c0.418-0.69,0.815-1.402,1.171-2.113c0.251-0.481,0.439-1.025,0.648-1.527l0.46-1.192
		c-1.004-0.084-1.924,0.104-2.949,0.167l-0.188-0.648c0.188-0.376,0.46-0.376,0.795-0.376c0.941,0,1.904-0.042,2.845-0.063
		c0.376-1.568,0.021-3.075,0.083-4.56l-1.109-0.586L70.256,27.959z M73.917,30.992l1.506-0.795c0.418,0.544,0.837,1.046,1.318,1.61
		l4.309-0.271c0.544-0.481,1.046-0.962,1.632-1.465c0.46,0.523,0.983,1.005,1.234,1.653c0.083,0.229-0.042,0.648-0.23,0.815
		c-0.46,0.461-0.502,1.004-0.481,1.548c0.042,2.302,0.125,4.582,0.209,6.862c0.042,1.276,0.062,2.573-0.272,3.828
		c-0.209,0.795-0.753,1.339-1.443,1.778c-0.356-0.355-0.628-0.711-0.481-1.234c0.063-0.251,0.021-0.502,0.021-0.815
		c-1.674,0.146-3.284,0.271-4.895,0.397c-0.188,0.795-0.377,1.464-1.067,1.883l-0.46-0.628c0.355-4.896-0.021-9.728,0.021-14.581
		c-0.063,0-0.104-0.021-0.146-0.021L73.917,30.992z M76.281,44.046l4.979-0.313c0.062-0.188,0.167-0.377,0.167-0.586
		c0.062-1.59,0.125-3.159,0.146-4.749c0-1.171-0.062-2.343-0.104-3.515l-0.146-2.51l-5.021,0.335l-0.314,2.907h3.159
		c0.46-0.293,1.087-0.146,1.778-0.188v0.9c-1.631,0.041-3.222,0.062-4.77,0.334v3.473l4.875-0.418v0.857l-4.749,0.439V44.046z"/>
	<path d="M89.569,42.875c-0.983,0.585-1.987,1.255-2.699,2.447c-0.523-0.69-0.795-1.485-1.632-1.757l0.125-0.105l3.452-1.422
		l0.167-3.243l-2.845,0.963l-0.544-1.465c1.108-0.083,2.217-0.146,3.494-0.251l0.711-0.879c0.418,0.356,0.795,0.649,1.172,0.941
		c0.125,0.503-0.042,0.816-0.544,1.067c-0.063,0.962-0.105,1.967-0.167,2.824l0.983,1.213c1.025,0.397,2.008,0.983,3.159,1.025
		c0.586,0.021,1.192,0.021,1.778,0c1.088-0.062,2.154-0.146,3.222-0.251c1.61-0.167,3.222-0.377,4.832-0.564h0.335l0.062,0.125
		c-0.229,0.209-0.502,0.419-0.711,0.648c-0.293,0.377-0.648,0.732-0.837,1.15c-0.209,0.439-0.481,0.754-0.857,0.963
		c-0.816,0-1.569,0.021-2.322,0c-1.82-0.062-3.64-0.104-5.46-0.251c-1.109-0.084-2.176-0.481-3.013-1.297L89.569,42.875z
		 M87.226,33.503c1.276,0.062,2.468,0.376,3.514,1.046c0.251,1.234,0.021,1.673-1.004,1.966c-0.167-0.062-0.356-0.146-0.565-0.251
		C88.711,35.155,88.042,34.298,87.226,33.503z M88.92,31.578c-0.146-0.899-0.335-1.799-0.962-2.553
		c1.067,0.314,2.05,0.732,2.845,1.443c0.272,0.23,0.313,0.732,0.481,1.193c-0.439,0.438-0.857,0.815-1.213,1.15
		C89.276,32.624,89.025,32.184,88.92,31.578z M97.246,37.686v1.945l0.795-0.167l-0.376-1.297c1.15,0.48,2.112,0.962,2.112,2.469
		c-0.251,0.292-0.585,0.669-0.941,1.046c-0.648-0.356-0.522-0.963-0.627-1.527c-1.192,0.293-2.197,0.879-3.306,1.422
		c-0.23-0.376-0.46-0.753-0.711-1.129c0.523-0.146,0.983-0.272,1.506-0.397v-2.28l-2.217,0.188l0.188,4.581
		c-0.167,0.397-0.355,0.857-0.899,1.025c-0.481-0.21-0.648-0.586-0.669-1.109c-0.042-1.422-0.125-2.866-0.272-4.246l-0.627-0.921
		l0.732-0.209l0.167-0.732l1.632,0.837l2.05-0.167c-0.021-0.565-0.062-1.109-0.104-1.674l-1.548,0.104l-0.899,1.025
		c-0.565-0.23-0.544-0.649-0.544-1.047l-0.042-4.017c0-0.689-0.062-1.359-0.606-2.008l0.941-0.418
		c0.355,0.209,0.711,0.438,1.15,0.689l4.644-0.125l1.339-1.108c0.355,0.334,0.837,0.795,1.485,1.443l-0.774,0.627
		c0.042,0.879,0.168,1.904,0.146,2.908c0,1.213-0.355,2.301-1.61,2.845c-0.481-0.146-0.293-0.585-0.397-0.941H97.33l-0.104,1.527
		c0.209,0.042,0.377,0.104,0.522,0.104c0.628-0.021,1.276-0.042,1.904-0.104c0.188-0.021,0.376-0.167,0.522-0.271l0.921-0.754
		l1.234,1.067c0.167,0.418-0.251,0.606-0.355,0.795c0,0.941,0,1.757-0.021,2.573c0,0.606,0,1.234-0.125,1.841
		c-0.188,0.857-1.088,1.674-1.8,1.694c-0.104,0-0.209-0.021-0.334-0.042c-0.188-0.627-0.397-1.255-1.046-1.59l0.062-0.125
		l1.213-0.063c0.042-0.292,0.126-0.585,0.146-0.857c0.021-1.13,0-2.238,0-3.431H97.246z M94.025,30.595l0.125,1.736
		c0.502-0.042,0.941-0.062,1.464-0.084c-0.041-0.585-0.062-1.129-0.083-1.652H94.025z M94.192,34.737l1.506-0.23l-0.125-1.652
		c-0.502,0.041-0.921,0.104-1.381,0.146V34.737z M99.046,32.122v-1.716h-1.8v4.101h1.778v-1.674h-1.736
		c0.021-0.209,0.042-0.376,0.042-0.564L99.046,32.122z"/>
</g>
</svg>
